<?xml version="1.0" encoding="UTF-8" standalone="no"?>
<!-- Created with Inkscape (http://www.inkscape.org/) -->

<svg
   xmlns:dc="http://purl.org/dc/elements/1.1/"
   xmlns:cc="http://creativecommons.org/ns#"
   xmlns:rdf="http://www.w3.org/1999/02/22-rdf-syntax-ns#"
   xmlns:svg="http://www.w3.org/2000/svg"
   xmlns="http://www.w3.org/2000/svg"
   xmlns:sodipodi="http://sodipodi.sourceforge.net/DTD/sodipodi-0.dtd"
   xmlns:inkscape="http://www.inkscape.org/namespaces/inkscape"
   width="50.799999mm"
   height="128.5mm"
   viewBox="0 0 50.799998 128.50002"
   version="1.1"
   id="svg5896"
   inkscape:version="0.92.4 (5da689c313, 2019-01-14)"
   sodipodi:docname="Label.svg">
  <defs
     id="defs5890" />
  <sodipodi:namedview
     id="base"
     pagecolor="#ffffff"
     bordercolor="#666666"
     borderopacity="1.0"
     inkscape:pageopacity="0.0"
     inkscape:pageshadow="2"
     inkscape:zoom="1.4142136"
     inkscape:cx="114.24075"
     inkscape:cy="235.96733"
     inkscape:document-units="mm"
     inkscape:current-layer="layer2"
     showgrid="false"
     units="mm"
     inkscape:window-width="1920"
     inkscape:window-height="1147"
     inkscape:window-x="-8"
     inkscape:window-y="-8"
     inkscape:window-maximized="1" />
  <metadata
     id="metadata5893">
    <rdf:RDF>
      <cc:Work
         rdf:about="">
        <dc:format>image/svg+xml</dc:format>
        <dc:type
           rdf:resource="http://purl.org/dc/dcmitype/StillImage" />
        <dc:title></dc:title>
      </cc:Work>
    </rdf:RDF>
  </metadata>
  <g
     inkscape:label="Layer 1"
     inkscape:groupmode="layer"
     id="layer1"
     transform="translate(0,-168.49998)"
     style="display:inline"
     sodipodi:insensitive="true">
    <rect
       id="rect10480"
       width="50.799999"
       height="128.5"
       x="0"
       y="168.49997"
       style="display:inline;fill:#fdecfd;fill-opacity:1;stroke-width:0.2967118" />
    <g
       id="g912">
      <path
         inkscape:connector-curvature="0"
         id="path910"
         d="m 22.381979,289.15803 c -0.08121,0 -0.162404,0 -0.243606,0 -0.01161,0 -0.0266,-0.007 -0.0348,0 -0.0082,0.009 0.0082,0.0266 0,0.0348 -0.01071,0.0104 -0.163249,-0.0104 -0.174005,0 -0.0082,0.007 0.0082,0.0266 0,0.0348 -0.0083,0.009 -0.130826,-0.009 -0.139203,0 -0.0082,0.007 0.0082,0.0266 0,0.0348 -0.0071,0.007 -0.09061,-0.007 -0.104403,0 -0.01473,0.007 -0.02013,0.0274 -0.0348,0.0348 -0.01042,0.004 -0.02443,-0.006 -0.0348,0 -0.01473,0.007 -0.02013,0.0274 -0.0348,0.0348 -0.02076,0.0104 -0.05319,-0.0164 -0.0696,0 -0.0082,0.007 0.01042,0.0296 0,0.0348 -0.02076,0.0104 -0.0476,-0.007 -0.0696,0 -0.01556,0.006 -0.02013,0.0275 -0.0348,0.0348 -0.02076,0.0104 -0.05321,-0.0164 -0.0696,0 -0.0082,0.007 0.0082,0.0266 0,0.0348 -0.0082,0.009 -0.02443,-0.004 -0.0348,0 -0.106129,0.0531 0.06365,0.0277 -0.104403,0.0696 -0.02251,0.006 -0.0476,-0.007 -0.0696,0 -0.01556,0.006 -0.02013,0.0275 -0.0348,0.0348 -0.01042,0.004 -0.02443,-0.006 -0.0348,0 -0.01473,0.007 -0.02013,0.0275 -0.0348,0.0348 -0.01042,0.006 -0.02443,-0.004 -0.0348,0 -0.01473,0.007 -0.02013,0.0275 -0.0348,0.0348 -0.02076,0.0104 -0.04885,-0.0104 -0.0696,0 -0.01473,0.007 -0.02013,0.0274 -0.0348,0.0348 -0.02075,0.0104 -0.05321,-0.0164 -0.0696,0 -0.0082,0.009 0.0082,0.0266 0,0.0348 -0.01741,0.0174 -0.08701,-0.0174 -0.104402,0 -0.0082,0.007 0.0082,0.0266 0,0.0348 -0.0082,0.007 -0.0266,-0.007 -0.0348,0 -0.0082,0.007 0.0082,0.0266 0,0.0348 -0.01641,0.0164 -0.05321,-0.0164 -0.0696,0 -0.0082,0.007 0.0082,0.0266 0,0.0348 -0.0082,0.009 -0.0266,-0.007 -0.0348,0 -0.0082,0.009 0.0082,0.0266 0,0.0348 -0.0082,0.007 -0.0266,-0.009 -0.0348,0 -0.02317,0.0232 0.02317,0.0464 0,0.0696 -0.0082,0.007 -0.02443,-0.006 -0.0348,0 -0.01473,0.007 -0.02319,0.0232 -0.0348,0.0348 -0.01161,0.0119 -0.02747,0.0202 -0.0348,0.0348 -0.0052,0.0104 0.0082,0.0265 0,0.0348 -0.0082,0.007 -0.0266,-0.007 -0.0348,0 -0.01641,0.0164 0.01641,0.0533 0,0.0696 -0.01641,0.0164 -0.05321,-0.0164 -0.0696,0 -0.0082,0.007 0.0052,0.0244 0,0.0348 -0.0074,0.0149 -0.02747,0.0202 -0.0348,0.0348 -0.0052,0.0104 0.0052,0.0244 0,0.0348 -0.0074,0.0149 -0.02747,0.0202 -0.0348,0.0348 -0.0052,0.0104 0.0082,0.0266 0,0.0348 -0.0082,0.009 -0.0266,-0.007 -0.0348,0 -0.0082,0.009 0.0052,0.0244 0,0.0348 -0.115427,0.11546 0.01641,-0.0329 -0.0348,0.0696 -0.03857,0.0772 -0.03104,-0.007 -0.0696,0.0696 -0.01042,0.0207 0.01641,0.0533 0,0.0696 -0.0082,0.009 -0.0266,-0.007 -0.0348,0 -0.01641,0.0164 0.01641,0.0533 0,0.0696 -0.0082,0.009 -0.0266,-0.009 -0.0348,0 -0.0082,0.009 0.0082,0.0266 0,0.0348 -0.0082,0.007 -0.0266,-0.009 -0.0348,0 -0.01741,0.0174 0.01741,0.087 0,0.10445 -0.0082,0.009 -0.0266,-0.007 -0.0348,0 -0.0082,0.009 0,0.0232 0,0.0348 0,0.058 0,0.11605 0,0.174 0,0.0182 -0.0046,0.13004 0,0.13926 0.01473,0.0293 0.05493,0.0402 0.0696,0.0696 0.01042,0.0207 -0.01042,0.0488 0,0.0696 0.0074,0.0149 0.02747,0.0202 0.0348,0.0348 0.0052,0.0104 -0.0052,0.0244 0,0.0348 0.0074,0.0149 0.02747,0.0201 0.0348,0.0348 0.01042,0.0208 -0.01641,0.0533 0,0.0696 0.0082,0.007 0.02443,-0.006 0.0348,0 0.144827,0.0725 -0.0372,-0.003 0.0348,0.0695 0.0082,0.009 0.0266,-0.007 0.0348,0 0.01641,0.0164 -0.01042,0.0489 0,0.0696 0.0074,0.0149 0.02747,0.0202 0.0348,0.0348 0.0052,0.0104 -0.0082,0.0266 0,0.0348 0.0082,0.009 0.0266,-0.007 0.0348,0 0.01641,0.0164 -0.01042,0.0488 0,0.0696 0.02088,0.0418 0.08353,0.0626 0.104403,0.10445 0.0052,0.0104 -0.0082,0.0266 0,0.0348 0.0082,0.007 0.0266,-0.007 0.0348,0 0.0082,0.007 -0.0082,0.0266 0,0.0348 0.0082,0.007 0.0266,-0.007 0.0348,0 0.0082,0.007 -0.0082,0.0266 0,0.0348 0.0082,0.009 0.0266,-0.007 0.0348,0 0.01641,0.0164 -0.01641,0.0533 0,0.0696 0.0082,0.007 0.0266,-0.007 0.0348,0 0.0082,0.007 -0.0082,0.0266 0,0.0348 0.0082,0.007 0.0266,-0.009 0.0348,0 0.0082,0.007 -0.0082,0.0265 0,0.0348 0.0082,0.009 0.0266,-0.009 0.0348,0 0.0082,0.009 -0.0082,0.0266 0,0.0348 0.0082,0.007 0.0266,-0.009 0.0348,0 0.0082,0.007 -0.0052,0.0244 0,0.0348 0.0074,0.0149 0.02747,0.0202 0.0348,0.0348 0.0052,0.0104 -0.0082,0.0266 0,0.0348 0.0082,0.007 0.0266,-0.007 0.0348,0 0.0082,0.007 -0.0052,0.0244 0,0.0348 0.07241,0.14477 -0.0024,-0.0372 0.0696,0.0348 0.0082,0.007 -0.0082,0.0266 0,0.0348 0.0082,0.007 0.0266,-0.009 0.0348,0 0.0082,0.007 -0.0052,0.0244 0,0.0348 0.0074,0.0149 0.02747,0.0202 0.0348,0.0348 0.0052,0.0104 -0.0082,0.0266 0,0.0348 0.01641,0.0164 0.05321,-0.0164 0.0696,0 0.0082,0.009 -0.0082,0.0266 0,0.0348 0.0082,0.007 0.0266,-0.009 0.0348,0 0.0082,0.007 -0.0082,0.0266 0,0.0348 0.0082,0.007 0.0232,0 0.0348,0 0.0116,0 0.02319,0 0.0348,0 0.0928,0 0.185605,0 0.278407,0 0.0928,0 0.185605,0 0.278407,0 0.01567,0 0.09381,0.006 0.104402,0 0.01473,-0.007 0.02013,-0.0274 0.0348,-0.0348 0.02076,-0.0104 0.04709,0.006 0.0696,0 0.03559,-0.009 0.06881,-0.0259 0.104403,-0.0348 0.0696,-0.0174 0,0.0348 0.104402,0 0.01556,-0.006 0.02013,-0.0275 0.0348,-0.0348 0.01027,-0.006 0.175146,0 0.208806,0 0.0116,0 0.0266,0.007 0.0348,0 0.0082,-0.009 -0.01041,-0.0296 0,-0.0348 0.02076,-0.0104 0.04641,0 0.0696,0 0.08121,0 0.162404,0 0.243606,0 0.0232,0 0.04758,0.007 0.0696,0 0.02461,-0.007 0.04499,-0.0266 0.0696,-0.0348 0.02075,-0.007 0.175089,0 0.208805,0 0.0116,0 0.0232,0 0.0348,0 0.0116,0 0.0266,0.007 0.0348,0 0.0082,-0.009 -0.0082,-0.0266 0,-0.0348 0.0082,-0.007 0.0232,0 0.0348,0 0.058,0 0.116008,0 0.174004,0"
         style="display:inline;fill:none;stroke:#000000;stroke-width:0.1968634px;stroke-linecap:butt;stroke-linejoin:miter;stroke-opacity:1" />
      <path
         inkscape:connector-curvature="0"
         id="path912"
         d="m 20.01552,291.21128 c 0.148206,0.0862 0.140975,0.0696 0.278408,0.0696 0.01161,0 0.0232,0 0.0348,0 0.01161,0 0.0266,0.007 0.0348,0 0.0082,-0.007 -0.0082,-0.0266 0,-0.0348 0.01741,-0.0174 0.08701,0.0174 0.104403,0 0.0082,-0.007 -0.0082,-0.0266 0,-0.0348 0.0082,-0.009 0.0232,0 0.0348,0 0.0232,0 0.04886,0.0104 0.0696,0 0.01041,-0.006 -0.0082,-0.0266 0,-0.0348 0.0082,-0.009 0.02443,0.006 0.0348,0 0.01473,-0.007 0.02013,-0.0275 0.0348,-0.0348 0.01042,-0.006 0.02443,0.004 0.0348,0 0.01473,-0.007 0.02013,-0.0275 0.0348,-0.0348 0.02076,-0.0104 0.04886,0.0104 0.0696,0 0.15927,-0.0796 -0.14767,0.0149 0.104403,-0.0696 0.02201,-0.007 0.05321,0.0164 0.0696,0 0.0082,-0.007 -0.0082,-0.0266 0,-0.0348 0.01641,-0.0164 0.04885,0.0104 0.0696,0 0.01473,-0.007 0.02013,-0.0275 0.0348,-0.0348 0.01042,-0.004 0.0232,0 0.0348,0 0.02319,0 0.0476,0.007 0.0696,0 0.01556,-0.004 0.02013,-0.0274 0.0348,-0.0348 0.01042,-0.006 0.0232,0 0.0348,0 0.01161,-0.0119 0.02013,-0.0275 0.0348,-0.0348 0.02187,-0.0104 0.117332,0.0104 0.139204,0 0.01473,-0.007 0.02013,-0.0274 0.0348,-0.0348 0.02187,-0.0104 0.117332,0.0104 0.139203,0 0.01473,-0.007 0.01924,-0.0296 0.0348,-0.0348 0.01924,-0.006 0.173759,0 0.208805,0 0.01161,0 0.02443,0.006 0.0348,0 0.08601,-0.043 -0.01205,-0.0348 0.0696,-0.0348 0.0348,0 0.0696,0 0.104403,0 0.01161,0 0.04639,4e-4 0.0348,0 -0.185144,-0.006 -0.370312,-0.0119 -0.555468,-0.0171"
         style="display:inline;fill:none;stroke:#000000;stroke-width:0.1968634px;stroke-linecap:butt;stroke-linejoin:miter;stroke-opacity:1" />
      <path
         inkscape:connector-curvature="0"
         id="path916"
         d="m 24.156822,289.08842 c 0.01161,0.0464 0.02543,0.0923 0.0348,0.13927 0.0046,0.0228 0,0.0464 0,0.0696 0,0.0464 0,0.0928 0,0.13926 0,0.13927 0,0.27839 0,0.4176 0,0.0134 -0.0014,0.13777 0,0.13926 0.0082,0.009 0.0266,-0.007 0.0348,0 0.0082,0.009 0,0.0232 0,0.0348 0,0.0119 0,0.0232 0,0.0348 0,0.1508 0,0.30161 0,0.45241 0,0.009 -0.0011,0.10326 0,0.10445 0.0082,0.007 0.0266,-0.007 0.0348,0 0.0082,0.007 0,0.0232 0,0.0348 0,0.0119 0,0.0232 0,0.0348 0,0.1508 0,0.30161 0,0.45241 0,0.13927 0,0.27841 0,0.41761 0,0.0119 0,0.0232 0,0.0348 0,0.0119 0.0082,0.0266 0,0.0348 -0.0082,0.009 -0.0266,-0.007 -0.0348,0 -0.0082,0.009 0,0.0232 0,0.0348 0,0.0696 0,0.13927 0,0.20881 0,0.0119 0.0082,0.0266 0,0.0348 -0.0082,0.009 -0.0266,-0.007 -0.0348,0 -0.0014,10e-4 0,0.12647 0,0.13927 0,0.0134 0.0014,0.13777 0,0.13926 -0.0082,0.009 -0.0266,-0.007 -0.0348,0 -0.0071,0.007 0.007,0.0906 0,0.10445 -0.0074,0.0149 -0.02746,0.0202 -0.0348,0.0348 -0.0054,0.0104 0,0.0887 0,0.10445 0.156551,-0.0753 0.207207,-0.0698 0.348007,-0.0698 0.0116,0 0.0232,0 0.0348,0 0.01161,0 0.0266,0.007 0.0348,0 0.0082,-0.007 -0.0082,-0.0266 0,-0.0348 0.0095,-0.009 0.120322,0.009 0.139203,0 0.01473,-0.007 0.02013,-0.0274 0.0348,-0.0348 0.02076,-0.0104 0.05319,0.0164 0.0696,0 0.0082,-0.007 -0.0082,-0.0266 0,-0.0348 0.0083,-0.009 0.130827,0.009 0.139203,0 0.0082,-0.009 -0.0082,-0.0266 0,-0.0348 0.01741,-0.0174 0.08701,0.0174 0.104403,0 0.0082,-0.007 -0.0082,-0.0266 0,-0.0348 0.01641,-0.0165 0.05321,0.0164 0.0696,0 0.01641,-0.0165 -0.01641,-0.0533 0,-0.0696 0.02321,-0.0232 0.04638,0.0232 0.0696,0 0.0082,-0.009 -0.0052,-0.0244 0,-0.0348 0.01473,-0.0293 0.05493,-0.0403 0.0696,-0.0696 0.0052,-0.0104 -0.0082,-0.0266 0,-0.0348 0.0082,-0.009 0.0266,0.007 0.0348,0 0.0082,-0.009 -0.0082,-0.0266 0,-0.0348 0.0082,-0.007 0.0266,0.009 0.0348,0 0.0082,-0.007 -0.0082,-0.0265 0,-0.0348 0.0082,-0.007 0.0266,0.007 0.0348,0 0.01641,-0.0165 -0.01641,-0.0533 0,-0.0696 0.0082,-0.007 0.0266,0.007 0.0348,0 0.0082,-0.007 -0.0082,-0.0266 0,-0.0348 0.0082,-0.007 0.0266,0.007 0.0348,0 0.0082,-0.007 -0.0082,-0.0266 0,-0.0348 0.0082,-0.007 0.0266,0.007 0.0348,0 0.0082,-0.007 -0.0082,-0.0266 0,-0.0348 0.0082,-0.009 0.0266,0.007 0.0348,0 0.01641,-0.0165 -0.01641,-0.0533 0,-0.0696 0.0082,-0.007 0.0266,0.007 0.0348,0 0.0082,-0.007 -0.0052,-0.0244 0,-0.0348 0.0073,-0.0149 0.02747,-0.0202 0.0348,-0.0348 0.01041,-0.0208 -0.01641,-0.0533 0,-0.0696 0.0082,-0.007 0.0266,0.009 0.0348,0 0.0082,-0.007 -0.0082,-0.0266 0,-0.0348 0.0082,-0.007 0.0266,0.009 0.0348,0 0.0082,-0.007 0,-0.0232 0,-0.0348 0,-0.0119 0,-0.0232 0,-0.0348 0,-0.0119 0,-0.0232 0,-0.0348 0,-0.0119 -0.0082,-0.0266 0,-0.0348 0.0082,-0.009 0.0266,0.007 0.0348,0 0.01071,-0.0104 -0.01071,-0.16323 0,-0.174 0.0082,-0.009 0.0266,0.009 0.0348,0 0.01071,-0.0104 -0.01071,-0.16323 0,-0.17402 0.0082,-0.007 0.0266,0.009 0.0348,0 0.01741,-0.0174 -0.01741,-0.087 0,-0.10445 0.0082,-0.009 0.0266,0.009 0.0348,0 0.0082,-0.009 0,-0.0232 0,-0.0348 0,-0.0696 0,-0.13927 0,-0.20881 0,-0.0928 0,-0.18561 0,-0.27841 0,-0.0119 0,-0.0232 0,-0.0348 0,-0.0119 0.0082,-0.0266 0,-0.0348 -0.0082,-0.009 -0.0266,0.007 -0.0348,0 -0.0083,-0.009 0.0083,-0.13078 0,-0.13926 -0.0082,-0.007 -0.0266,0.009 -0.0348,0 -0.01741,-0.0174 0.01741,-0.087 0,-0.10445 -0.0082,-0.007 -0.0266,0.007 -0.0348,0 -0.01741,-0.0174 0.01741,-0.087 0,-0.10445 -0.0082,-0.007 -0.0266,0.009 -0.0348,0 -0.0082,-0.007 0.0082,-0.0266 0,-0.0348 -0.0082,-0.009 -0.0266,0.007 -0.0348,0 -0.0071,-0.007 0.007,-0.0906 0,-0.10445 -0.0074,-0.0149 -0.02747,-0.0202 -0.0348,-0.0348 -0.0052,-0.0104 0.0082,-0.0266 0,-0.0348 -0.0082,-0.009 -0.0266,0.007 -0.0348,0 -0.01641,-0.0165 0.01042,-0.0488 0,-0.0696 -0.07241,-0.14477 0.0024,0.0372 -0.0696,-0.0348 -0.0082,-0.007 0.0082,-0.0266 0,-0.0348 -0.0082,-0.009 -0.0266,0.007 -0.0348,0 -0.0082,-0.009 0.0082,-0.0266 0,-0.0348 -0.0082,-0.007 -0.0266,0.007 -0.0348,0 -0.0082,-0.007 0.0082,-0.0266 0,-0.0348 -0.01641,-0.0164 -0.05321,0.0165 -0.0696,0 -0.0082,-0.007 0.0082,-0.0266 0,-0.0348 -0.0082,-0.007 -0.0266,0.007 -0.0348,0 -0.0082,-0.007 0.0082,-0.0266 0,-0.0348 -0.01641,-0.0164 -0.05319,0.0165 -0.0696,0 -0.0082,-0.009 0.0082,-0.0266 0,-0.0348 -0.0082,-0.009 -0.0266,0.009 -0.0348,0 -0.0082,-0.009 0.0082,-0.0266 0,-0.0348 -0.0082,-0.009 -0.02443,0.004 -0.0348,0 -0.01473,-0.007 -0.02013,-0.0275 -0.0348,-0.0348 -0.01041,-0.004 -0.0266,0.009 -0.0348,0 -0.0082,-0.007 0.0082,-0.0266 0,-0.0348 -0.01641,-0.0165 -0.05319,0.0165 -0.0696,0 -0.0082,-0.009 0.0082,-0.0266 0,-0.0348 -0.0082,-0.007 -0.02443,0.006 -0.0348,0 -0.01473,-0.007 -0.02013,-0.0274 -0.0348,-0.0348 -0.01384,-0.007 -0.09729,0.007 -0.104402,0 -0.0082,-0.007 0.0082,-0.0266 0,-0.0348 -0.0082,-0.007 -0.0232,0 -0.0348,0 -0.0696,0 -0.139204,0 -0.208805,0 -0.01161,0 -0.0266,0.007 -0.0348,0 -0.0082,-0.007 0.0082,-0.0266 0,-0.0348 -0.0015,-0.001 -0.157595,0 -0.174005,0 -0.0116,0 -0.0266,0.007 -0.0348,0 -0.0082,-0.009 0.0082,-0.0266 0,-0.0348 -0.01641,-0.0165 -0.04885,0.0104 -0.0696,0 -0.03742,-0.0186 -0.0696,-0.0464 -0.104403,-0.0696 z"
         style="display:inline;fill:none;stroke:#000000;stroke-width:0.1968634px;stroke-linecap:butt;stroke-linejoin:miter;stroke-opacity:1" />
      <path
         inkscape:connector-curvature="0"
         id="path918"
         d="m 27.2889,292.2553 c 0.111366,-0.14848 0.104403,-0.0812 0.104403,-0.174 0,-0.0119 -0.0052,-0.0244 0,-0.0348 0.0074,-0.0149 0.02747,-0.0201 0.0348,-0.0348 0.01399,-0.0278 -0.01399,-0.0766 0,-0.10445 0.0074,-0.0149 0.02747,-0.0201 0.0348,-0.0348 0.0052,-0.0104 -0.0052,-0.0244 0,-0.0348 0.0074,-0.0149 0.02746,-0.0202 0.0348,-0.0348 0.01041,-0.0208 -0.01042,-0.0489 0,-0.0696 0.0074,-0.0149 0.02746,-0.0202 0.0348,-0.0348 0.01399,-0.0278 -0.01399,-0.0765 0,-0.10445 0.0074,-0.0149 0.02961,-0.0192 0.0348,-0.0348 5.4e-5,-1.6e-4 -3.2e-5,-0.10444 0,-0.10444 0.0082,-0.009 0.0266,0.007 0.0348,0 0.0082,-0.009 -0.0052,-0.0244 0,-0.0348 0.0074,-0.0149 0.03083,-0.0189 0.0348,-0.0348 0.0085,-0.0338 0,-0.0696 0,-0.10445 0,-0.0119 -0.0052,-0.0244 0,-0.0348 0.0074,-0.0149 0.02747,-0.0202 0.0348,-0.0348 0.0052,-0.0104 0,-0.0232 0,-0.0348 0,-0.0232 -0.0074,-0.0476 0,-0.0696 0.0052,-0.0155 0.02747,-0.0201 0.0348,-0.0348 0.01071,-0.0216 -0.01027,-0.12884 0,-0.13926 0.0082,-0.007 0.0266,0.007 0.0348,0 0.01146,-0.0119 -0.0083,-0.11397 0,-0.13926 0.0052,-0.0156 0.02747,-0.0202 0.0348,-0.0348 0.0052,-0.0104 -0.0082,-0.0266 0,-0.0348 0.0082,-0.009 0.0266,0.007 0.0348,0 0.0125,-0.0119 -0.01131,-0.11665 0,-0.13927 0.0052,-0.0104 0.0266,0.009 0.0348,0 0.0083,-0.009 -0.0083,-0.13078 0,-0.13926 0.0082,-0.007 0.0266,0.009 0.0348,0 0.0095,-0.009 -0.0094,-0.12037 0,-0.13926 0.0074,-0.0149 0.02747,-0.0202 0.0348,-0.0348 0.01041,-0.0207 -0.01042,-0.0489 0,-0.0696 0.0074,-0.0149 0.02747,-0.0202 0.0348,-0.0348 0.0052,-0.0104 0,-0.0232 0,-0.0348 0,-0.0119 0,-0.0232 0,-0.0348 0,-0.058 0,-0.11605 0,-0.174 0,-0.0119 0,-0.0232 0,-0.0348 0,-0.0119 -0.0082,-0.0266 0,-0.0348 0.0082,-0.009 0.02961,0.0104 0.0348,0 0.0051,-0.0104 0,-0.18032 0,-0.20881 0,-0.174 0,-0.34799 0,-0.522 0,-0.0164 -0.0015,-0.17242 0,-0.17402 0.0082,-0.007 0.0266,-0.007 0.0348,0 0.0082,0.009 -0.0082,0.0266 0,0.0348 0.04641,0.0464 0.0348,-0.058 0.0348,0.0348 0,0.0119 0,0.0232 0,0.0348 0,0.0119 -0.0082,0.0266 0,0.0348 0.0082,0.007 0.0266,-0.009 0.0348,0 0.0082,0.007 0,0.0232 0,0.0348 0,0.0242 -0.0064,0.16142 0,0.17401 0.0074,0.0149 0.02747,0.0202 0.0348,0.0348 0.0052,0.0104 0,0.0232 0,0.0348 0,0.0119 0,0.0232 0,0.0348 0,0.009 -0.0011,0.10326 0,0.10445 0.0082,0.007 0.0266,-0.009 0.0348,0 0.01071,0.0104 -0.01071,0.16323 0,0.17401 0.0082,0.007 0.0266,-0.007 0.0348,0 0.01641,0.0164 -0.01041,0.0489 0,0.0696 0.0074,0.0149 0.02747,0.0202 0.0348,0.0348 0.01205,0.0241 -0.0122,0.16179 0,0.17401 0.0082,0.009 0.0266,-0.007 0.0348,0 0.0083,0.009 -0.0083,0.13078 0,0.13926 0.0082,0.009 0.0266,-0.007 0.0348,0 0.0095,0.009 -0.0094,0.12037 0,0.13926 0.0074,0.0149 0.02747,0.0202 0.0348,0.0348 0.0052,0.0104 -0.0082,0.0266 0,0.0348 0.0082,0.007 0.0266,-0.007 0.0348,0 0.0071,0.007 -0.007,0.0906 0,0.10445 0.0074,0.0149 0.02746,0.0202 0.0348,0.0348 0.007,0.0134 -0.0071,0.0973 0,0.10445 0.0082,0.007 0.0266,-0.009 0.0348,0 0.01741,0.0174 -0.01741,0.087 0,0.10444 0.0082,0.009 0.0266,-0.007 0.0348,0 0.0082,0.009 -0.0082,0.0266 0,0.0348 0.0082,0.009 0.0266,-0.007 0.0348,0 0.0014,10e-4 0,0.12647 0,0.13926 0,0.0928 -0.01161,-0.0119 0.0348,0.0348 0.0082,0.007 -0.0082,0.0266 0,0.0348 0.0082,0.009 0.0266,0.009 0.0348,0 0.01641,-0.0164 -0.01641,-0.0531 0,-0.0695 0.0082,-0.007 0.02443,0.004 0.0348,0 0.07695,-0.0385 0.01086,-0.0216 0.0348,-0.0696 0.0074,-0.0149 0.02746,-0.0201 0.0348,-0.0348 0.0052,-0.0104 -0.0082,-0.0266 0,-0.0348 0.0082,-0.007 0.0266,0.007 0.0348,0 0.01741,-0.0174 -0.01741,-0.087 0,-0.10445 0.04641,-0.0464 0.03339,0.0738 0.0696,-0.0348 0.0074,-0.022 -0.01041,-0.0488 0,-0.0696 0.0052,-0.0104 0.0266,0.007 0.0348,0 0.01641,-0.0164 -0.01042,-0.0488 0,-0.0695 0.0074,-0.0149 0.02961,-0.0192 0.0348,-0.0348 0,-0.15842 -0.01641,-0.003 0.0348,-0.10444 0.01041,-0.0207 -0.01042,-0.0488 0,-0.0695 0.01473,-0.0293 0.05493,-0.0403 0.0696,-0.0696 0.0068,-0.0134 -0.0071,-0.0973 0,-0.10445 0.0082,-0.007 0.0266,0.007 0.0348,0 0.0082,-0.007 0,-0.0232 0,-0.0348 0,-0.0232 -0.01041,-0.0488 0,-0.0695 0.0052,-0.0104 0.0266,0.007 0.0348,0 0.0071,-0.007 -0.0068,-0.0906 0,-0.10445 0.01473,-0.0293 0.05493,-0.0403 0.0696,-0.0696 0.01399,-0.0278 -0.01399,-0.0766 0,-0.10445 0.0074,-0.0149 0.02747,-0.0202 0.0348,-0.0348 0.01041,-0.0208 -0.01042,-0.0489 0,-0.0696 0.0074,-0.0149 0.02747,-0.0202 0.0348,-0.0348 0.007,-0.0134 -0.0071,-0.0973 0,-0.10445 0.0082,-0.007 0.0266,0.007 0.0348,0 0.01641,-0.0164 -0.01641,-0.0533 0,-0.0696 0.0082,-0.007 0.0266,0.007 0.0348,0 0.01641,-0.0164 -0.01641,-0.0533 0,-0.0696 0.0082,-0.007 0.0266,0.009 0.0348,0 0.01741,-0.0174 -0.01741,-0.087 0,-0.10445 0.0082,-0.009 0.0266,0.009 0.0348,0 0.01741,-0.0174 -0.01741,-0.087 0,-0.10445 0.0082,-0.007 0.0266,0.007 0.0348,0 0.0082,-0.007 -0.0082,-0.0266 0,-0.0348 0.0082,-0.009 0.0266,0.007 0.0348,0 0.01741,-0.0174 -0.01741,-0.087 0,-0.10445 0.0082,-0.007 0.0266,-0.007 0.0348,0 0.01641,0.0164 -0.01041,0.0488 0,0.0695 0.04301,0.086 0.0348,-0.0119 0.0348,0.0696 0,0.0119 -0.0082,0.0266 0,0.0348 0.0082,0.007 0.0266,-0.007 0.0348,0 0.0082,0.007 -0.0052,0.0244 0,0.0348 0.0074,0.0149 0.02961,0.0192 0.0348,0.0348 0.0054,0.0159 -0.0077,0.12364 0,0.13926 0.0074,0.0149 0.02746,0.0202 0.0348,0.0348 0.0052,0.0104 0,0.0232 0,0.0348 0,0.0119 0,0.0232 0,0.0348 0,0.0134 -0.0014,0.13778 0,0.13926 0.0082,0.007 0.0266,-0.009 0.0348,0 0.0082,0.007 0,0.0232 0,0.0348 0,0.0696 0,0.13926 0,0.20881 0,0.0119 -0.0082,0.0266 0,0.0348 0.0082,0.007 0.0266,-0.009 0.0348,0 0.0095,0.009 -0.0094,0.12037 0,0.13926 0.0074,0.0149 0.02747,0.0201 0.0348,0.0348 0.0052,0.0104 0,0.0887 0,0.10445 0,0.0134 -0.0014,0.13777 0,0.13926 0.0082,0.009 0.0266,-0.009 0.0348,0 0.0082,0.009 0,0.0232 0,0.0348 0,0.0164 -0.0016,0.17242 0,0.174 0.0082,0.007 0.0266,-0.007 0.0348,0 0.0082,0.007 0,0.0232 0,0.0348 0,0.0164 -0.0015,0.17242 0,0.174 0.0082,0.007 0.0266,-0.007 0.0348,0 0.01641,0.0164 -0.01641,0.0533 0,0.0696 0.0082,0.007 0.0266,-0.009 0.0348,0 0.0082,0.007 0,0.0232 0,0.0348 0,0.0696 0,0.13926 0,0.2088 0,0.058 0,0.11606 0,0.17401 0,0.0119 0,0.0232 0,0.0348 0,0.0119 -0.0052,0.0244 0,0.0348 0.0074,0.0149 0.02747,0.0202 0.0348,0.0348 0.0054,0.0104 0,0.0887 0,0.10445 0,0.0812 0,0.16239 0,0.24359 0,0.0119 0,0.0232 0,0.0348 0,0.0119 -0.0082,0.0266 0,0.0348 0.0082,0.009 0.0266,-0.007 0.0348,0 0.0082,0.009 0,0.0232 0,0.0348 0,0.058 0,0.11605 0,0.17401 0,0.0119 -0.0082,0.0266 0,0.0348 0.0082,0.007 0.0266,-0.007 0.0348,0 0.01741,0.0174 -0.01741,0.087 0,0.10445 0.0082,0.007 0.0266,-0.009 0.0348,0 0.0012,10e-4 0,0.096 0,0.10445"
         style="display:inline;fill:none;stroke:#000000;stroke-width:0.1968634px;stroke-linecap:butt;stroke-linejoin:miter;stroke-opacity:1" />
    </g>
    <path
       inkscape:connector-curvature="0"
       id="path919"
       style="font-style:normal;font-weight:normal;font-size:10.58333302px;line-height:1.25;font-family:sans-serif;letter-spacing:0px;word-spacing:0px;fill:#000000;fill-opacity:1;stroke:none;stroke-width:0.26458332"
       d="m 15.22116,179.69539 h -0.971517 v -8.04085 h 0.971517 z" />
    <path
       inkscape:connector-curvature="0"
       id="path921"
       style="font-style:normal;font-weight:normal;font-size:10.58333302px;line-height:1.25;font-family:sans-serif;letter-spacing:0px;word-spacing:0px;fill:#000000;fill-opacity:1;stroke:none;stroke-width:0.26458332"
       d="m 21.639373,179.69539 h -0.96635 v -0.61495 q -0.129191,0.0879 -0.351399,0.24805 -0.217041,0.15503 -0.423747,0.24804 -0.242879,0.11886 -0.558106,0.19637 -0.315226,0.0827 -0.738972,0.0827 -0.780315,0 -1.322917,-0.51677 -0.542603,-0.51676 -0.542603,-1.31775 0,-0.65629 0.279053,-1.05936 0.28422,-0.40825 0.806152,-0.64079 0.5271,-0.23255 1.266073,-0.31523 0.738973,-0.0827 1.586466,-0.12402 v -0.14986 q 0,-0.33073 -0.118855,-0.54777 -0.113689,-0.21704 -0.33073,-0.34107 -0.206705,-0.11885 -0.496093,-0.16019 -0.289388,-0.0413 -0.604615,-0.0413 -0.382405,0 -0.852661,0.10336 -0.470255,0.0982 -0.971517,0.28938 h -0.05168 v -0.98702 q 0.28422,-0.0775 0.821655,-0.17053 0.537435,-0.093 1.059367,-0.093 0.609782,0 1.059367,0.10335 0.454753,0.0982 0.785482,0.34106 0.325561,0.23771 0.496093,0.61495 0.170533,0.37724 0.170533,0.93535 z m -0.96635,-1.4211 v -1.60714 q -0.444417,0.0258 -1.049031,0.0775 -0.599447,0.0517 -0.950846,0.14987 -0.41858,0.11885 -0.676962,0.37207 -0.258382,0.24804 -0.258382,0.68729 0,0.4961 0.299723,0.74931 0.299724,0.24805 0.914673,0.24805 0.511597,0 0.935344,-0.19637 0.423746,-0.20154 0.785481,-0.48059 z" />
    <path
       inkscape:connector-curvature="0"
       id="path923"
       style="font-style:normal;font-weight:normal;font-size:10.58333302px;line-height:1.25;font-family:sans-serif;letter-spacing:0px;word-spacing:0px;fill:#000000;fill-opacity:1;stroke:none;stroke-width:0.26458332"
       d="m 28.600188,176.76534 q 0,0.72347 -0.206706,1.30224 -0.201538,0.57878 -0.54777,0.97152 -0.366903,0.40824 -0.806152,0.61495 -0.43925,0.20154 -0.96635,0.20154 -0.490926,0 -0.857828,-0.11886 -0.366903,-0.11369 -0.72347,-0.31006 l -0.06201,0.26872 h -0.909505 v -8.04085 h 0.971517 v 2.87321 q 0.408243,-0.3359 0.868164,-0.54777 0.45992,-0.21705 1.033528,-0.21705 1.023193,0 1.612305,0.78549 0.594279,0.78548 0.594279,2.21692 z m -1.002523,0.0258 q 0,-1.03353 -0.341064,-1.56579 -0.341065,-0.53744 -1.100708,-0.53744 -0.423747,0 -0.857829,0.18604 -0.434082,0.18087 -0.806152,0.47025 v 3.30729 q 0.413411,0.18604 0.707967,0.25839 0.299723,0.0723 0.676961,0.0723 0.806152,0 1.260905,-0.5271 0.45992,-0.53226 0.45992,-1.66398 z" />
    <path
       inkscape:connector-curvature="0"
       id="path925"
       style="font-style:normal;font-weight:normal;font-size:10.58333302px;line-height:1.25;font-family:sans-serif;letter-spacing:0px;word-spacing:0px;fill:#000000;fill-opacity:1;stroke:none;stroke-width:0.26458332"
       d="m 34.946054,176.91003 h -4.25297 q 0,0.53227 0.160197,0.93017 0.160197,0.39275 0.439249,0.64596 0.268718,0.24805 0.63562,0.37207 0.372071,0.12402 0.816488,0.12402 0.589111,0 1.18339,-0.23254 0.599447,-0.23771 0.852661,-0.46509 h 0.05168 v 1.05937 q -0.490926,0.2067 -1.002523,0.34623 -0.511597,0.13953 -1.07487,0.13953 -1.436604,0 -2.242757,-0.77515 -0.806152,-0.78031 -0.806152,-2.21175 0,-1.41593 0.769979,-2.24792 0.775146,-0.832 2.036051,-0.832 1.167887,0 1.79834,0.68213 0.63562,0.68213 0.63562,1.93787 z m -0.945679,-0.74414 q -0.0052,-0.76481 -0.387573,-1.18339 -0.377238,-0.41858 -1.152384,-0.41858 -0.780314,0 -1.245402,0.45992 -0.459921,0.45992 -0.521932,1.14205 z" />
    <path
       inkscape:connector-curvature="0"
       id="path927"
       style="font-style:normal;font-weight:normal;font-size:10.58333302px;line-height:1.25;font-family:sans-serif;letter-spacing:0px;word-spacing:0px;fill:#000000;fill-opacity:1;stroke:none;stroke-width:0.26458332"
       d="m 37.400683,179.69539 h -0.971517 v -8.04085 h 0.971517 z" />
  </g>
  <g
     inkscape:groupmode="layer"
     id="layer2"
     inkscape:label="components"
     style="display:inline"
     transform="translate(0,27.958344)">
    <rect
       y="-12.8634"
       x="4.8302612"
       height="8.2117281"
       width="8.2131243"
       id="rect56657"
       style="display:inline;opacity:1;vector-effect:none;fill:#00ff00;fill-opacity:0.51794876;fill-rule:evenodd;stroke:none;stroke-width:0.34577003;stroke-linecap:butt;stroke-linejoin:miter;stroke-miterlimit:10;stroke-dasharray:none;stroke-dashoffset:0;stroke-opacity:1;paint-order:normal" />
    <rect
       style="display:inline;opacity:1;vector-effect:none;fill:#00ff00;fill-opacity:0.51794876;fill-rule:evenodd;stroke:none;stroke-width:0.34577003;stroke-linecap:butt;stroke-linejoin:miter;stroke-miterlimit:10;stroke-dasharray:none;stroke-dashoffset:0;stroke-opacity:1;paint-order:normal"
       id="rect56659"
       width="8.2131243"
       height="8.2117281"
       x="4.8302612"
       y="-2.8643577" />
    <rect
       y="7.1360645"
       x="4.8302612"
       height="8.2117281"
       width="8.2131243"
       id="rect56661"
       style="display:inline;opacity:1;vector-effect:none;fill:#00ff00;fill-opacity:0.51794876;fill-rule:evenodd;stroke:none;stroke-width:0.34577003;stroke-linecap:butt;stroke-linejoin:miter;stroke-miterlimit:10;stroke-dasharray:none;stroke-dashoffset:0;stroke-opacity:1;paint-order:normal" />
    <rect
       style="display:inline;opacity:1;vector-effect:none;fill:#00ff00;fill-opacity:0.51794876;fill-rule:evenodd;stroke:none;stroke-width:0.34577003;stroke-linecap:butt;stroke-linejoin:miter;stroke-miterlimit:10;stroke-dasharray:none;stroke-dashoffset:0;stroke-opacity:1;paint-order:normal"
       id="rect56663"
       width="8.2131243"
       height="8.2117281"
       x="4.8302612"
       y="17.136484" />
    <rect
       y="27.136904"
       x="4.8302612"
       height="8.2117281"
       width="8.2131243"
       id="rect56665"
       style="display:inline;opacity:1;vector-effect:none;fill:#00ff00;fill-opacity:0.51794876;fill-rule:evenodd;stroke:none;stroke-width:0.34577003;stroke-linecap:butt;stroke-linejoin:miter;stroke-miterlimit:10;stroke-dasharray:none;stroke-dashoffset:0;stroke-opacity:1;paint-order:normal" />
    <rect
       style="display:inline;opacity:1;vector-effect:none;fill:#00ff00;fill-opacity:0.51794876;fill-rule:evenodd;stroke:none;stroke-width:0.34577003;stroke-linecap:butt;stroke-linejoin:miter;stroke-miterlimit:10;stroke-dasharray:none;stroke-dashoffset:0;stroke-opacity:1;paint-order:normal"
       id="rect56667"
       width="8.2131243"
       height="8.2117281"
       x="4.8302612"
       y="37.135948" />
    <rect
       y="47.136375"
       x="4.8302612"
       height="8.2117281"
       width="8.2131243"
       id="rect56669"
       style="display:inline;opacity:1;vector-effect:none;fill:#00ff00;fill-opacity:0.51794876;fill-rule:evenodd;stroke:none;stroke-width:0.34577003;stroke-linecap:butt;stroke-linejoin:miter;stroke-miterlimit:10;stroke-dasharray:none;stroke-dashoffset:0;stroke-opacity:1;paint-order:normal" />
    <rect
       style="display:inline;opacity:1;vector-effect:none;fill:#00ff00;fill-opacity:0.51794876;fill-rule:evenodd;stroke:none;stroke-width:0.34577003;stroke-linecap:butt;stroke-linejoin:miter;stroke-miterlimit:10;stroke-dasharray:none;stroke-dashoffset:0;stroke-opacity:1;paint-order:normal"
       id="rect56671"
       width="8.2131243"
       height="8.2117281"
       x="4.8302612"
       y="57.136799" />
    <rect
       y="67.135857"
       x="4.8302612"
       height="8.2117281"
       width="8.2131243"
       id="rect56673"
       style="display:inline;opacity:1;vector-effect:none;fill:#00ff00;fill-opacity:0.51794876;fill-rule:evenodd;stroke:none;stroke-width:0.34577003;stroke-linecap:butt;stroke-linejoin:miter;stroke-miterlimit:10;stroke-dasharray:none;stroke-dashoffset:0;stroke-opacity:1;paint-order:normal" />
    <rect
       style="display:inline;opacity:1;vector-effect:none;fill:#00ff00;fill-opacity:0.51794876;fill-rule:evenodd;stroke:none;stroke-width:0.34577003;stroke-linecap:butt;stroke-linejoin:miter;stroke-miterlimit:10;stroke-dasharray:none;stroke-dashoffset:0;stroke-opacity:1;paint-order:normal"
       id="rect56675"
       width="8.2131243"
       height="8.2117281"
       x="4.8302612"
       y="77.136269" />
    <rect
       style="display:inline;opacity:1;vector-effect:none;fill:#0000ff;fill-opacity:0.51794876;fill-rule:evenodd;stroke:none;stroke-width:0.34577003;stroke-linecap:butt;stroke-linejoin:miter;stroke-miterlimit:10;stroke-dasharray:none;stroke-dashoffset:0;stroke-opacity:1;paint-order:normal"
       id="rect56677"
       width="8.2131243"
       height="8.2117281"
       x="38.35516"
       y="-12.8634" />
    <rect
       y="-2.8643577"
       x="38.35516"
       height="8.2117281"
       width="8.2131243"
       id="rect56679"
       style="display:inline;opacity:1;vector-effect:none;fill:#0000ff;fill-opacity:0.51794876;fill-rule:evenodd;stroke:none;stroke-width:0.34577003;stroke-linecap:butt;stroke-linejoin:miter;stroke-miterlimit:10;stroke-dasharray:none;stroke-dashoffset:0;stroke-opacity:1;paint-order:normal" />
    <rect
       style="display:inline;opacity:1;vector-effect:none;fill:#0000ff;fill-opacity:0.51794876;fill-rule:evenodd;stroke:none;stroke-width:0.34577003;stroke-linecap:butt;stroke-linejoin:miter;stroke-miterlimit:10;stroke-dasharray:none;stroke-dashoffset:0;stroke-opacity:1;paint-order:normal"
       id="rect56681"
       width="8.2131243"
       height="8.2117281"
       x="38.35516"
       y="7.1360645" />
    <rect
       y="17.136484"
       x="38.35516"
       height="8.2117281"
       width="8.2131243"
       id="rect56683"
       style="display:inline;opacity:1;vector-effect:none;fill:#0000ff;fill-opacity:0.51794876;fill-rule:evenodd;stroke:none;stroke-width:0.34577003;stroke-linecap:butt;stroke-linejoin:miter;stroke-miterlimit:10;stroke-dasharray:none;stroke-dashoffset:0;stroke-opacity:1;paint-order:normal" />
    <rect
       style="display:inline;opacity:1;vector-effect:none;fill:#0000ff;fill-opacity:0.51794876;fill-rule:evenodd;stroke:none;stroke-width:0.34577003;stroke-linecap:butt;stroke-linejoin:miter;stroke-miterlimit:10;stroke-dasharray:none;stroke-dashoffset:0;stroke-opacity:1;paint-order:normal"
       id="rect56685"
       width="8.2131243"
       height="8.2117281"
       x="38.35516"
       y="27.135538" />
    <rect
       y="37.135948"
       x="38.355194"
       height="8.2117281"
       width="8.2131243"
       id="rect56687"
       style="display:inline;opacity:1;vector-effect:none;fill:#0000ff;fill-opacity:0.51794876;fill-rule:evenodd;stroke:none;stroke-width:0.34577003;stroke-linecap:butt;stroke-linejoin:miter;stroke-miterlimit:10;stroke-dasharray:none;stroke-dashoffset:0;stroke-opacity:1;paint-order:normal" />
    <rect
       style="display:inline;opacity:1;vector-effect:none;fill:#0000ff;fill-opacity:0.51794876;fill-rule:evenodd;stroke:none;stroke-width:0.34577003;stroke-linecap:butt;stroke-linejoin:miter;stroke-miterlimit:10;stroke-dasharray:none;stroke-dashoffset:0;stroke-opacity:1;paint-order:normal"
       id="rect56689"
       width="8.2131243"
       height="8.2117281"
       x="38.355194"
       y="47.136375" />
    <rect
       y="57.136799"
       x="38.35516"
       height="8.2117281"
       width="8.2131243"
       id="rect56691"
       style="display:inline;opacity:1;vector-effect:none;fill:#0000ff;fill-opacity:0.51794876;fill-rule:evenodd;stroke:none;stroke-width:0.34577003;stroke-linecap:butt;stroke-linejoin:miter;stroke-miterlimit:10;stroke-dasharray:none;stroke-dashoffset:0;stroke-opacity:1;paint-order:normal" />
    <rect
       style="display:inline;opacity:1;vector-effect:none;fill:#0000ff;fill-opacity:0.51794876;fill-rule:evenodd;stroke:none;stroke-width:0.34577003;stroke-linecap:butt;stroke-linejoin:miter;stroke-miterlimit:10;stroke-dasharray:none;stroke-dashoffset:0;stroke-opacity:1;paint-order:normal"
       id="rect56693"
       width="8.2131243"
       height="8.2117281"
       x="38.355194"
       y="67.135857" />
    <rect
       y="77.136269"
       x="38.355194"
       height="8.2117281"
       width="8.2131243"
       id="rect56695"
       style="display:inline;opacity:1;vector-effect:none;fill:#0000ff;fill-opacity:0.51794876;fill-rule:evenodd;stroke:none;stroke-width:0.34577003;stroke-linecap:butt;stroke-linejoin:miter;stroke-miterlimit:10;stroke-dasharray:none;stroke-dashoffset:0;stroke-opacity:1;paint-order:normal" />
    <rect
       style="fill:#ffff00;fill-opacity:1;stroke:none;stroke-width:0.2;stroke-miterlimit:4;stroke-dasharray:none;stroke-opacity:1"
       id="rect935"
       width="22.412001"
       height="8.2117281"
       x="14.355696"
       y="-12.8634"
       rx="2.7755576e-17" />
    <rect
       style="display:inline;fill:#ffff00;fill-opacity:1;stroke:none;stroke-width:0.2;stroke-miterlimit:4;stroke-dasharray:none;stroke-opacity:1"
       id="rect935-0"
       width="22.412001"
       height="8.2117281"
       x="14.355696"
       y="77.136269"
       rx="2.7755579e-17" />
    <rect
       style="display:inline;fill:#ffff00;fill-opacity:1;stroke:none;stroke-width:0.2;stroke-miterlimit:4;stroke-dasharray:none;stroke-opacity:1"
       id="rect935-2"
       width="22.412001"
       height="8.2117281"
       x="14.355696"
       y="-1.5923331"
       rx="2.7755579e-17" />
    <rect
       style="display:inline;fill:#ffff00;fill-opacity:1;stroke:none;stroke-width:0.2;stroke-miterlimit:4;stroke-dasharray:none;stroke-opacity:1"
       id="rect935-7"
       width="22.412001"
       height="8.2117281"
       x="14.355696"
       y="7.6680837"
       rx="2.7755579e-17" />
    <rect
       style="display:inline;fill:#ffff00;fill-opacity:1;stroke:none;stroke-width:0.2;stroke-miterlimit:4;stroke-dasharray:none;stroke-opacity:1"
       id="rect935-1"
       width="22.412001"
       height="8.2117281"
       x="14.355696"
       y="18.383709"
       rx="2.7755579e-17" />
    <rect
       style="display:inline;fill:#ffff00;fill-opacity:1;stroke:none;stroke-width:0.2;stroke-miterlimit:4;stroke-dasharray:none;stroke-opacity:1"
       id="rect935-8"
       width="22.412001"
       height="8.2117281"
       x="14.355696"
       y="27.379541"
       rx="2.7755579e-17" />
    <rect
       style="display:inline;fill:#ffff00;fill-opacity:1;stroke:none;stroke-width:0.2;stroke-miterlimit:4;stroke-dasharray:none;stroke-opacity:1"
       id="rect935-5"
       width="22.412001"
       height="8.2117281"
       x="14.355696"
       y="35.9785"
       rx="2.7755579e-17" />
    <rect
       style="display:inline;fill:#ffff00;fill-opacity:1;stroke:none;stroke-width:0.2;stroke-miterlimit:4;stroke-dasharray:none;stroke-opacity:1"
       id="rect935-15"
       width="22.412001"
       height="8.2117281"
       x="14.355696"
       y="46.032665"
       rx="2.7755579e-17" />
    <rect
       style="display:inline;fill:#ffff00;fill-opacity:1;stroke:none;stroke-width:0.2;stroke-miterlimit:4;stroke-dasharray:none;stroke-opacity:1"
       id="rect935-6"
       width="22.412001"
       height="8.2117281"
       x="14.355696"
       y="54.763916"
       rx="2.7755579e-17" />
    <rect
       style="display:inline;fill:#ffff00;fill-opacity:1;stroke:none;stroke-width:0.2;stroke-miterlimit:4;stroke-dasharray:none;stroke-opacity:1"
       id="rect935-19"
       width="22.412001"
       height="8.2117281"
       x="14.355696"
       y="66.405586"
       rx="2.7755579e-17" />
  </g>
</svg>
