<?xml version="1.0" encoding="UTF-8" standalone="no"?>
<!-- Created with Inkscape (http://www.inkscape.org/) -->

<svg
   xmlns:dc="http://purl.org/dc/elements/1.1/"
   xmlns:cc="http://creativecommons.org/ns#"
   xmlns:rdf="http://www.w3.org/1999/02/22-rdf-syntax-ns#"
   xmlns:svg="http://www.w3.org/2000/svg"
   xmlns="http://www.w3.org/2000/svg"
   xmlns:sodipodi="http://sodipodi.sourceforge.net/DTD/sodipodi-0.dtd"
   xmlns:inkscape="http://www.inkscape.org/namespaces/inkscape"
   width="150"
   height="380"
   viewBox="0 0 39.687499 100.54167"
   version="1.1"
   id="svg5896"
   inkscape:version="0.92.4 (5da689c313, 2019-01-14)"
   sodipodi:docname="MidiReader.svg">
  <defs
     id="defs5890" />
  <sodipodi:namedview
     id="base"
     pagecolor="#ffffff"
     bordercolor="#666666"
     borderopacity="1.0"
     inkscape:pageopacity="0.0"
     inkscape:pageshadow="2"
     inkscape:zoom="2"
     inkscape:cx="24.333026"
     inkscape:cy="215.64686"
     inkscape:document-units="mm"
     inkscape:current-layer="layer1"
     showgrid="false"
     units="px"
     inkscape:window-width="1920"
     inkscape:window-height="1147"
     inkscape:window-x="-8"
     inkscape:window-y="-8"
     inkscape:window-maximized="1" />
  <metadata
     id="metadata5893">
    <rdf:RDF>
      <cc:Work
         rdf:about="">
        <dc:format>image/svg+xml</dc:format>
        <dc:type
           rdf:resource="http://purl.org/dc/dcmitype/StillImage" />
        <dc:title />
      </cc:Work>
    </rdf:RDF>
  </metadata>
  <g
     inkscape:label="Layer 1"
     inkscape:groupmode="layer"
     id="layer1"
     transform="translate(0,-196.45832)"
     style="display:inline">
    <rect
       id="rect10480"
       width="39.6875"
       height="100.54166"
       x="0"
       y="196.45831"
       style="display:inline;fill:#fdecfd;fill-opacity:1;stroke-width:0.2319804" />
    <path
       style="display:inline;fill:none;stroke:#000000;stroke-width:0.1968634px;stroke-linecap:butt;stroke-linejoin:miter;stroke-opacity:1"
       d="m 17.090309,289.15803 c -0.08121,0 -0.162404,0 -0.243606,0 -0.01161,0 -0.0266,-0.007 -0.0348,0 -0.0082,0.009 0.0082,0.0266 0,0.0348 -0.01071,0.0104 -0.163249,-0.0104 -0.174005,0 -0.0082,0.007 0.0082,0.0266 0,0.0348 -0.0083,0.009 -0.130826,-0.009 -0.139203,0 -0.0082,0.007 0.0082,0.0266 0,0.0348 -0.0071,0.007 -0.09061,-0.007 -0.104403,0 -0.01473,0.007 -0.02013,0.0274 -0.0348,0.0348 -0.01042,0.004 -0.02443,-0.006 -0.0348,0 -0.01473,0.007 -0.02013,0.0274 -0.0348,0.0348 -0.02076,0.0104 -0.05319,-0.0164 -0.0696,0 -0.0082,0.007 0.01042,0.0296 0,0.0348 -0.02076,0.0104 -0.0476,-0.007 -0.0696,0 -0.01556,0.006 -0.02013,0.0275 -0.0348,0.0348 -0.02076,0.0104 -0.05321,-0.0164 -0.0696,0 -0.0082,0.007 0.0082,0.0266 0,0.0348 -0.0082,0.009 -0.02443,-0.004 -0.0348,0 -0.106129,0.0531 0.06365,0.0277 -0.104403,0.0696 -0.02251,0.006 -0.0476,-0.007 -0.0696,0 -0.01556,0.006 -0.02013,0.0275 -0.0348,0.0348 -0.01042,0.004 -0.02443,-0.006 -0.0348,0 -0.01473,0.007 -0.02013,0.0275 -0.0348,0.0348 -0.01042,0.006 -0.02443,-0.004 -0.0348,0 -0.01473,0.007 -0.02013,0.0275 -0.0348,0.0348 -0.02076,0.0104 -0.04885,-0.0104 -0.0696,0 -0.01473,0.007 -0.02013,0.0274 -0.0348,0.0348 -0.02075,0.0104 -0.05321,-0.0164 -0.0696,0 -0.0082,0.009 0.0082,0.0266 0,0.0348 -0.01741,0.0174 -0.08701,-0.0174 -0.104402,0 -0.0082,0.007 0.0082,0.0266 0,0.0348 -0.0082,0.007 -0.0266,-0.007 -0.0348,0 -0.0082,0.007 0.0082,0.0266 0,0.0348 -0.01641,0.0164 -0.05321,-0.0164 -0.0696,0 -0.0082,0.007 0.0082,0.0266 0,0.0348 -0.0082,0.009 -0.0266,-0.007 -0.0348,0 -0.0082,0.009 0.0082,0.0266 0,0.0348 -0.0082,0.007 -0.0266,-0.009 -0.0348,0 -0.02317,0.0232 0.02317,0.0464 0,0.0696 -0.0082,0.007 -0.02443,-0.006 -0.0348,0 -0.01473,0.007 -0.02319,0.0232 -0.0348,0.0348 -0.01161,0.0119 -0.02747,0.0202 -0.0348,0.0348 -0.0052,0.0104 0.0082,0.0265 0,0.0348 -0.0082,0.007 -0.0266,-0.007 -0.0348,0 -0.01641,0.0164 0.01641,0.0533 0,0.0696 -0.01641,0.0164 -0.05321,-0.0164 -0.0696,0 -0.0082,0.007 0.0052,0.0244 0,0.0348 -0.0074,0.0149 -0.02747,0.0202 -0.0348,0.0348 -0.0052,0.0104 0.0052,0.0244 0,0.0348 -0.0074,0.0149 -0.02747,0.0202 -0.0348,0.0348 -0.0052,0.0104 0.0082,0.0266 0,0.0348 -0.0082,0.009 -0.0266,-0.007 -0.0348,0 -0.0082,0.009 0.0052,0.0244 0,0.0348 -0.115427,0.11546 0.01641,-0.0329 -0.0348,0.0696 -0.03857,0.0772 -0.03104,-0.007 -0.0696,0.0696 -0.01042,0.0207 0.01641,0.0533 0,0.0696 -0.0082,0.009 -0.0266,-0.007 -0.0348,0 -0.01641,0.0164 0.01641,0.0533 0,0.0696 -0.0082,0.009 -0.0266,-0.009 -0.0348,0 -0.0082,0.009 0.0082,0.0266 0,0.0348 -0.0082,0.007 -0.0266,-0.009 -0.0348,0 -0.01741,0.0174 0.01741,0.087 0,0.10445 -0.0082,0.009 -0.0266,-0.007 -0.0348,0 -0.0082,0.009 0,0.0232 0,0.0348 0,0.058 0,0.11605 0,0.174 0,0.0182 -0.0046,0.13004 0,0.13926 0.01473,0.0293 0.05493,0.0402 0.0696,0.0696 0.01042,0.0207 -0.01042,0.0488 0,0.0696 0.0074,0.0149 0.02747,0.0202 0.0348,0.0348 0.0052,0.0104 -0.0052,0.0244 0,0.0348 0.0074,0.0149 0.02747,0.0201 0.0348,0.0348 0.01042,0.0208 -0.01641,0.0533 0,0.0696 0.0082,0.007 0.02443,-0.006 0.0348,0 0.144827,0.0725 -0.0372,-0.003 0.0348,0.0695 0.0082,0.009 0.0266,-0.007 0.0348,0 0.01641,0.0164 -0.01042,0.0489 0,0.0696 0.0074,0.0149 0.02747,0.0202 0.0348,0.0348 0.0052,0.0104 -0.0082,0.0266 0,0.0348 0.0082,0.009 0.0266,-0.007 0.0348,0 0.01641,0.0164 -0.01042,0.0488 0,0.0696 0.02088,0.0418 0.08353,0.0626 0.104403,0.10445 0.0052,0.0104 -0.0082,0.0266 0,0.0348 0.0082,0.007 0.0266,-0.007 0.0348,0 0.0082,0.007 -0.0082,0.0266 0,0.0348 0.0082,0.007 0.0266,-0.007 0.0348,0 0.0082,0.007 -0.0082,0.0266 0,0.0348 0.0082,0.009 0.0266,-0.007 0.0348,0 0.01641,0.0164 -0.01641,0.0533 0,0.0696 0.0082,0.007 0.0266,-0.007 0.0348,0 0.0082,0.007 -0.0082,0.0266 0,0.0348 0.0082,0.007 0.0266,-0.009 0.0348,0 0.0082,0.007 -0.0082,0.0265 0,0.0348 0.0082,0.009 0.0266,-0.009 0.0348,0 0.0082,0.009 -0.0082,0.0266 0,0.0348 0.0082,0.007 0.0266,-0.009 0.0348,0 0.0082,0.007 -0.0052,0.0244 0,0.0348 0.0074,0.0149 0.02747,0.0202 0.0348,0.0348 0.0052,0.0104 -0.0082,0.0266 0,0.0348 0.0082,0.007 0.0266,-0.007 0.0348,0 0.0082,0.007 -0.0052,0.0244 0,0.0348 0.07241,0.14477 -0.0024,-0.0372 0.0696,0.0348 0.0082,0.007 -0.0082,0.0266 0,0.0348 0.0082,0.007 0.0266,-0.009 0.0348,0 0.0082,0.007 -0.0052,0.0244 0,0.0348 0.0074,0.0149 0.02747,0.0202 0.0348,0.0348 0.0052,0.0104 -0.0082,0.0266 0,0.0348 0.01641,0.0164 0.05321,-0.0164 0.0696,0 0.0082,0.009 -0.0082,0.0266 0,0.0348 0.0082,0.007 0.0266,-0.009 0.0348,0 0.0082,0.007 -0.0082,0.0266 0,0.0348 0.0082,0.007 0.0232,0 0.0348,0 0.0116,0 0.02319,0 0.0348,0 0.0928,0 0.185605,0 0.278407,0 0.0928,0 0.185605,0 0.278407,0 0.01567,0 0.09381,0.006 0.104402,0 0.01473,-0.007 0.02013,-0.0274 0.0348,-0.0348 0.02076,-0.0104 0.04709,0.006 0.0696,0 0.03559,-0.009 0.06881,-0.0259 0.104403,-0.0348 0.0696,-0.0174 0,0.0348 0.104402,0 0.01556,-0.006 0.02013,-0.0275 0.0348,-0.0348 0.01027,-0.006 0.175146,0 0.208806,0 0.0116,0 0.0266,0.007 0.0348,0 0.0082,-0.009 -0.01041,-0.0296 0,-0.0348 0.02076,-0.0104 0.04641,0 0.0696,0 0.08121,0 0.162404,0 0.243606,0 0.0232,0 0.04758,0.007 0.0696,0 0.02461,-0.007 0.04499,-0.0266 0.0696,-0.0348 0.02075,-0.007 0.175089,0 0.208805,0 0.0116,0 0.0232,0 0.0348,0 0.0116,0 0.0266,0.007 0.0348,0 0.0082,-0.009 -0.0082,-0.0266 0,-0.0348 0.0082,-0.007 0.0232,0 0.0348,0 0.058,0 0.116008,0 0.174004,0"
       id="path910"
       inkscape:connector-curvature="0" />
    <path
       style="display:inline;fill:none;stroke:#000000;stroke-width:0.1968634px;stroke-linecap:butt;stroke-linejoin:miter;stroke-opacity:1"
       d="m 14.72385,291.21128 c 0.148206,0.0862 0.140975,0.0696 0.278408,0.0696 0.01161,0 0.0232,0 0.0348,0 0.01161,0 0.0266,0.007 0.0348,0 0.0082,-0.007 -0.0082,-0.0266 0,-0.0348 0.01741,-0.0174 0.08701,0.0174 0.104403,0 0.0082,-0.007 -0.0082,-0.0266 0,-0.0348 0.0082,-0.009 0.0232,0 0.0348,0 0.0232,0 0.04886,0.0104 0.0696,0 0.01041,-0.006 -0.0082,-0.0266 0,-0.0348 0.0082,-0.009 0.02443,0.006 0.0348,0 0.01473,-0.007 0.02013,-0.0275 0.0348,-0.0348 0.01042,-0.006 0.02443,0.004 0.0348,0 0.01473,-0.007 0.02013,-0.0275 0.0348,-0.0348 0.02076,-0.0104 0.04886,0.0104 0.0696,0 0.15927,-0.0796 -0.14767,0.0149 0.104403,-0.0696 0.02201,-0.007 0.05321,0.0164 0.0696,0 0.0082,-0.007 -0.0082,-0.0266 0,-0.0348 0.01641,-0.0164 0.04885,0.0104 0.0696,0 0.01473,-0.007 0.02013,-0.0275 0.0348,-0.0348 0.01042,-0.004 0.0232,0 0.0348,0 0.02319,0 0.0476,0.007 0.0696,0 0.01556,-0.004 0.02013,-0.0274 0.0348,-0.0348 0.01042,-0.006 0.0232,0 0.0348,0 0.01161,-0.0119 0.02013,-0.0275 0.0348,-0.0348 0.02187,-0.0104 0.117332,0.0104 0.139204,0 0.01473,-0.007 0.02013,-0.0274 0.0348,-0.0348 0.02187,-0.0104 0.117332,0.0104 0.139203,0 0.01473,-0.007 0.01924,-0.0296 0.0348,-0.0348 0.01924,-0.006 0.173759,0 0.208805,0 0.01161,0 0.02443,0.006 0.0348,0 0.08601,-0.043 -0.01205,-0.0348 0.0696,-0.0348 0.0348,0 0.0696,0 0.104403,0 0.01161,0 0.04639,4e-4 0.0348,0 -0.185144,-0.006 -0.370312,-0.0119 -0.555468,-0.0171"
       id="path912"
       inkscape:connector-curvature="0" />
    <path
       style="display:inline;fill:none;stroke:#000000;stroke-width:0.1968634px;stroke-linecap:butt;stroke-linejoin:miter;stroke-opacity:1"
       d="m 18.865152,289.08842 c 0.01161,0.0464 0.02543,0.0923 0.0348,0.13927 0.0046,0.0228 0,0.0464 0,0.0696 0,0.0464 0,0.0928 0,0.13926 0,0.13927 0,0.27839 0,0.4176 0,0.0134 -0.0014,0.13777 0,0.13926 0.0082,0.009 0.0266,-0.007 0.0348,0 0.0082,0.009 0,0.0232 0,0.0348 0,0.0119 0,0.0232 0,0.0348 0,0.1508 0,0.30161 0,0.45241 0,0.009 -0.0011,0.10326 0,0.10445 0.0082,0.007 0.0266,-0.007 0.0348,0 0.0082,0.007 0,0.0232 0,0.0348 0,0.0119 0,0.0232 0,0.0348 0,0.1508 0,0.30161 0,0.45241 0,0.13927 0,0.27841 0,0.41761 0,0.0119 0,0.0232 0,0.0348 0,0.0119 0.0082,0.0266 0,0.0348 -0.0082,0.009 -0.0266,-0.007 -0.0348,0 -0.0082,0.009 0,0.0232 0,0.0348 0,0.0696 0,0.13927 0,0.20881 0,0.0119 0.0082,0.0266 0,0.0348 -0.0082,0.009 -0.0266,-0.007 -0.0348,0 -0.0014,10e-4 0,0.12647 0,0.13927 0,0.0134 0.0014,0.13777 0,0.13926 -0.0082,0.009 -0.0266,-0.007 -0.0348,0 -0.0071,0.007 0.007,0.0906 0,0.10445 -0.0074,0.0149 -0.02746,0.0202 -0.0348,0.0348 -0.0054,0.0104 0,0.0887 0,0.10445 0.156551,-0.0753 0.207207,-0.0698 0.348007,-0.0698 0.0116,0 0.0232,0 0.0348,0 0.01161,0 0.0266,0.007 0.0348,0 0.0082,-0.007 -0.0082,-0.0266 0,-0.0348 0.0095,-0.009 0.120322,0.009 0.139203,0 0.01473,-0.007 0.02013,-0.0274 0.0348,-0.0348 0.02076,-0.0104 0.05319,0.0164 0.0696,0 0.0082,-0.007 -0.0082,-0.0266 0,-0.0348 0.0083,-0.009 0.130827,0.009 0.139203,0 0.0082,-0.009 -0.0082,-0.0266 0,-0.0348 0.01741,-0.0174 0.08701,0.0174 0.104403,0 0.0082,-0.007 -0.0082,-0.0266 0,-0.0348 0.01641,-0.0165 0.05321,0.0164 0.0696,0 0.01641,-0.0165 -0.01641,-0.0533 0,-0.0696 0.02321,-0.0232 0.04638,0.0232 0.0696,0 0.0082,-0.009 -0.0052,-0.0244 0,-0.0348 0.01473,-0.0293 0.05493,-0.0403 0.0696,-0.0696 0.0052,-0.0104 -0.0082,-0.0266 0,-0.0348 0.0082,-0.009 0.0266,0.007 0.0348,0 0.0082,-0.009 -0.0082,-0.0266 0,-0.0348 0.0082,-0.007 0.0266,0.009 0.0348,0 0.0082,-0.007 -0.0082,-0.0265 0,-0.0348 0.0082,-0.007 0.0266,0.007 0.0348,0 0.01641,-0.0165 -0.01641,-0.0533 0,-0.0696 0.0082,-0.007 0.0266,0.007 0.0348,0 0.0082,-0.007 -0.0082,-0.0266 0,-0.0348 0.0082,-0.007 0.0266,0.007 0.0348,0 0.0082,-0.007 -0.0082,-0.0266 0,-0.0348 0.0082,-0.007 0.0266,0.007 0.0348,0 0.0082,-0.007 -0.0082,-0.0266 0,-0.0348 0.0082,-0.009 0.0266,0.007 0.0348,0 0.01641,-0.0165 -0.01641,-0.0533 0,-0.0696 0.0082,-0.007 0.0266,0.007 0.0348,0 0.0082,-0.007 -0.0052,-0.0244 0,-0.0348 0.0073,-0.0149 0.02747,-0.0202 0.0348,-0.0348 0.01041,-0.0208 -0.01641,-0.0533 0,-0.0696 0.0082,-0.007 0.0266,0.009 0.0348,0 0.0082,-0.007 -0.0082,-0.0266 0,-0.0348 0.0082,-0.007 0.0266,0.009 0.0348,0 0.0082,-0.007 0,-0.0232 0,-0.0348 0,-0.0119 0,-0.0232 0,-0.0348 0,-0.0119 0,-0.0232 0,-0.0348 0,-0.0119 -0.0082,-0.0266 0,-0.0348 0.0082,-0.009 0.0266,0.007 0.0348,0 0.01071,-0.0104 -0.01071,-0.16323 0,-0.174 0.0082,-0.009 0.0266,0.009 0.0348,0 0.01071,-0.0104 -0.01071,-0.16323 0,-0.17402 0.0082,-0.007 0.0266,0.009 0.0348,0 0.01741,-0.0174 -0.01741,-0.087 0,-0.10445 0.0082,-0.009 0.0266,0.009 0.0348,0 0.0082,-0.009 0,-0.0232 0,-0.0348 0,-0.0696 0,-0.13927 0,-0.20881 0,-0.0928 0,-0.18561 0,-0.27841 0,-0.0119 0,-0.0232 0,-0.0348 0,-0.0119 0.0082,-0.0266 0,-0.0348 -0.0082,-0.009 -0.0266,0.007 -0.0348,0 -0.0083,-0.009 0.0083,-0.13078 0,-0.13926 -0.0082,-0.007 -0.0266,0.009 -0.0348,0 -0.01741,-0.0174 0.01741,-0.087 0,-0.10445 -0.0082,-0.007 -0.0266,0.007 -0.0348,0 -0.01741,-0.0174 0.01741,-0.087 0,-0.10445 -0.0082,-0.007 -0.0266,0.009 -0.0348,0 -0.0082,-0.007 0.0082,-0.0266 0,-0.0348 -0.0082,-0.009 -0.0266,0.007 -0.0348,0 -0.0071,-0.007 0.007,-0.0906 0,-0.10445 -0.0074,-0.0149 -0.02747,-0.0202 -0.0348,-0.0348 -0.0052,-0.0104 0.0082,-0.0266 0,-0.0348 -0.0082,-0.009 -0.0266,0.007 -0.0348,0 -0.01641,-0.0165 0.01042,-0.0488 0,-0.0696 -0.07241,-0.14477 0.0024,0.0372 -0.0696,-0.0348 -0.0082,-0.007 0.0082,-0.0266 0,-0.0348 -0.0082,-0.009 -0.0266,0.007 -0.0348,0 -0.0082,-0.009 0.0082,-0.0266 0,-0.0348 -0.0082,-0.007 -0.0266,0.007 -0.0348,0 -0.0082,-0.007 0.0082,-0.0266 0,-0.0348 -0.01641,-0.0164 -0.05321,0.0165 -0.0696,0 -0.0082,-0.007 0.0082,-0.0266 0,-0.0348 -0.0082,-0.007 -0.0266,0.007 -0.0348,0 -0.0082,-0.007 0.0082,-0.0266 0,-0.0348 -0.01641,-0.0164 -0.05319,0.0165 -0.0696,0 -0.0082,-0.009 0.0082,-0.0266 0,-0.0348 -0.0082,-0.009 -0.0266,0.009 -0.0348,0 -0.0082,-0.009 0.0082,-0.0266 0,-0.0348 -0.0082,-0.009 -0.02443,0.004 -0.0348,0 -0.01473,-0.007 -0.02013,-0.0275 -0.0348,-0.0348 -0.01041,-0.004 -0.0266,0.009 -0.0348,0 -0.0082,-0.007 0.0082,-0.0266 0,-0.0348 -0.01641,-0.0165 -0.05319,0.0165 -0.0696,0 -0.0082,-0.009 0.0082,-0.0266 0,-0.0348 -0.0082,-0.007 -0.02443,0.006 -0.0348,0 -0.01473,-0.007 -0.02013,-0.0274 -0.0348,-0.0348 -0.01384,-0.007 -0.09729,0.007 -0.104402,0 -0.0082,-0.007 0.0082,-0.0266 0,-0.0348 -0.0082,-0.007 -0.0232,0 -0.0348,0 -0.0696,0 -0.139204,0 -0.208805,0 -0.01161,0 -0.0266,0.007 -0.0348,0 -0.0082,-0.007 0.0082,-0.0266 0,-0.0348 -0.0015,-0.001 -0.157595,0 -0.174005,0 -0.0116,0 -0.0266,0.007 -0.0348,0 -0.0082,-0.009 0.0082,-0.0266 0,-0.0348 -0.01641,-0.0165 -0.04885,0.0104 -0.0696,0 -0.03742,-0.0186 -0.0696,-0.0464 -0.104403,-0.0696 z"
       id="path916"
       inkscape:connector-curvature="0" />
    <path
       style="display:inline;fill:none;stroke:#000000;stroke-width:0.1968634px;stroke-linecap:butt;stroke-linejoin:miter;stroke-opacity:1"
       d="m 21.99723,292.2553 c 0.111366,-0.14848 0.104403,-0.0812 0.104403,-0.174 0,-0.0119 -0.0052,-0.0244 0,-0.0348 0.0074,-0.0149 0.02747,-0.0201 0.0348,-0.0348 0.01399,-0.0278 -0.01399,-0.0766 0,-0.10445 0.0074,-0.0149 0.02747,-0.0201 0.0348,-0.0348 0.0052,-0.0104 -0.0052,-0.0244 0,-0.0348 0.0074,-0.0149 0.02746,-0.0202 0.0348,-0.0348 0.01041,-0.0208 -0.01042,-0.0489 0,-0.0696 0.0074,-0.0149 0.02746,-0.0202 0.0348,-0.0348 0.01399,-0.0278 -0.01399,-0.0765 0,-0.10445 0.0074,-0.0149 0.02961,-0.0192 0.0348,-0.0348 5.4e-5,-1.6e-4 -3.2e-5,-0.10444 0,-0.10444 0.0082,-0.009 0.0266,0.007 0.0348,0 0.0082,-0.009 -0.0052,-0.0244 0,-0.0348 0.0074,-0.0149 0.03083,-0.0189 0.0348,-0.0348 0.0085,-0.0338 0,-0.0696 0,-0.10445 0,-0.0119 -0.0052,-0.0244 0,-0.0348 0.0074,-0.0149 0.02747,-0.0202 0.0348,-0.0348 0.0052,-0.0104 0,-0.0232 0,-0.0348 0,-0.0232 -0.0074,-0.0476 0,-0.0696 0.0052,-0.0155 0.02747,-0.0201 0.0348,-0.0348 0.01071,-0.0216 -0.01027,-0.12884 0,-0.13926 0.0082,-0.007 0.0266,0.007 0.0348,0 0.01146,-0.0119 -0.0083,-0.11397 0,-0.13926 0.0052,-0.0156 0.02747,-0.0202 0.0348,-0.0348 0.0052,-0.0104 -0.0082,-0.0266 0,-0.0348 0.0082,-0.009 0.0266,0.007 0.0348,0 0.0125,-0.0119 -0.01131,-0.11665 0,-0.13927 0.0052,-0.0104 0.0266,0.009 0.0348,0 0.0083,-0.009 -0.0083,-0.13078 0,-0.13926 0.0082,-0.007 0.0266,0.009 0.0348,0 0.0095,-0.009 -0.0094,-0.12037 0,-0.13926 0.0074,-0.0149 0.02747,-0.0202 0.0348,-0.0348 0.01041,-0.0207 -0.01042,-0.0489 0,-0.0696 0.0074,-0.0149 0.02747,-0.0202 0.0348,-0.0348 0.0052,-0.0104 0,-0.0232 0,-0.0348 0,-0.0119 0,-0.0232 0,-0.0348 0,-0.058 0,-0.11605 0,-0.174 0,-0.0119 0,-0.0232 0,-0.0348 0,-0.0119 -0.0082,-0.0266 0,-0.0348 0.0082,-0.009 0.02961,0.0104 0.0348,0 0.0051,-0.0104 0,-0.18032 0,-0.20881 0,-0.174 0,-0.34799 0,-0.522 0,-0.0164 -0.0015,-0.17242 0,-0.17402 0.0082,-0.007 0.0266,-0.007 0.0348,0 0.0082,0.009 -0.0082,0.0266 0,0.0348 0.04641,0.0464 0.0348,-0.058 0.0348,0.0348 0,0.0119 0,0.0232 0,0.0348 0,0.0119 -0.0082,0.0266 0,0.0348 0.0082,0.007 0.0266,-0.009 0.0348,0 0.0082,0.007 0,0.0232 0,0.0348 0,0.0242 -0.0064,0.16142 0,0.17401 0.0074,0.0149 0.02747,0.0202 0.0348,0.0348 0.0052,0.0104 0,0.0232 0,0.0348 0,0.0119 0,0.0232 0,0.0348 0,0.009 -0.0011,0.10326 0,0.10445 0.0082,0.007 0.0266,-0.009 0.0348,0 0.01071,0.0104 -0.01071,0.16323 0,0.17401 0.0082,0.007 0.0266,-0.007 0.0348,0 0.01641,0.0164 -0.01041,0.0489 0,0.0696 0.0074,0.0149 0.02747,0.0202 0.0348,0.0348 0.01205,0.0241 -0.0122,0.16179 0,0.17401 0.0082,0.009 0.0266,-0.007 0.0348,0 0.0083,0.009 -0.0083,0.13078 0,0.13926 0.0082,0.009 0.0266,-0.007 0.0348,0 0.0095,0.009 -0.0094,0.12037 0,0.13926 0.0074,0.0149 0.02747,0.0202 0.0348,0.0348 0.0052,0.0104 -0.0082,0.0266 0,0.0348 0.0082,0.007 0.0266,-0.007 0.0348,0 0.0071,0.007 -0.007,0.0906 0,0.10445 0.0074,0.0149 0.02746,0.0202 0.0348,0.0348 0.007,0.0134 -0.0071,0.0973 0,0.10445 0.0082,0.007 0.0266,-0.009 0.0348,0 0.01741,0.0174 -0.01741,0.087 0,0.10444 0.0082,0.009 0.0266,-0.007 0.0348,0 0.0082,0.009 -0.0082,0.0266 0,0.0348 0.0082,0.009 0.0266,-0.007 0.0348,0 0.0014,10e-4 0,0.12647 0,0.13926 0,0.0928 -0.01161,-0.0119 0.0348,0.0348 0.0082,0.007 -0.0082,0.0266 0,0.0348 0.0082,0.009 0.0266,0.009 0.0348,0 0.01641,-0.0164 -0.01641,-0.0531 0,-0.0695 0.0082,-0.007 0.02443,0.004 0.0348,0 0.07695,-0.0385 0.01086,-0.0216 0.0348,-0.0696 0.0074,-0.0149 0.02746,-0.0201 0.0348,-0.0348 0.0052,-0.0104 -0.0082,-0.0266 0,-0.0348 0.0082,-0.007 0.0266,0.007 0.0348,0 0.01741,-0.0174 -0.01741,-0.087 0,-0.10445 0.04641,-0.0464 0.03339,0.0738 0.0696,-0.0348 0.0074,-0.022 -0.01041,-0.0488 0,-0.0696 0.0052,-0.0104 0.0266,0.007 0.0348,0 0.01641,-0.0164 -0.01042,-0.0488 0,-0.0695 0.0074,-0.0149 0.02961,-0.0192 0.0348,-0.0348 0,-0.15842 -0.01641,-0.003 0.0348,-0.10444 0.01041,-0.0207 -0.01042,-0.0488 0,-0.0695 0.01473,-0.0293 0.05493,-0.0403 0.0696,-0.0696 0.0068,-0.0134 -0.0071,-0.0973 0,-0.10445 0.0082,-0.007 0.0266,0.007 0.0348,0 0.0082,-0.007 0,-0.0232 0,-0.0348 0,-0.0232 -0.01041,-0.0488 0,-0.0695 0.0052,-0.0104 0.0266,0.007 0.0348,0 0.0071,-0.007 -0.0068,-0.0906 0,-0.10445 0.01473,-0.0293 0.05493,-0.0403 0.0696,-0.0696 0.01399,-0.0278 -0.01399,-0.0766 0,-0.10445 0.0074,-0.0149 0.02747,-0.0202 0.0348,-0.0348 0.01041,-0.0208 -0.01042,-0.0489 0,-0.0696 0.0074,-0.0149 0.02747,-0.0202 0.0348,-0.0348 0.007,-0.0134 -0.0071,-0.0973 0,-0.10445 0.0082,-0.007 0.0266,0.007 0.0348,0 0.01641,-0.0164 -0.01641,-0.0533 0,-0.0696 0.0082,-0.007 0.0266,0.007 0.0348,0 0.01641,-0.0164 -0.01641,-0.0533 0,-0.0696 0.0082,-0.007 0.0266,0.009 0.0348,0 0.01741,-0.0174 -0.01741,-0.087 0,-0.10445 0.0082,-0.009 0.0266,0.009 0.0348,0 0.01741,-0.0174 -0.01741,-0.087 0,-0.10445 0.0082,-0.007 0.0266,0.007 0.0348,0 0.0082,-0.007 -0.0082,-0.0266 0,-0.0348 0.0082,-0.009 0.0266,0.007 0.0348,0 0.01741,-0.0174 -0.01741,-0.087 0,-0.10445 0.0082,-0.007 0.0266,-0.007 0.0348,0 0.01641,0.0164 -0.01041,0.0488 0,0.0695 0.04301,0.086 0.0348,-0.0119 0.0348,0.0696 0,0.0119 -0.0082,0.0266 0,0.0348 0.0082,0.007 0.0266,-0.007 0.0348,0 0.0082,0.007 -0.0052,0.0244 0,0.0348 0.0074,0.0149 0.02961,0.0192 0.0348,0.0348 0.0054,0.0159 -0.0077,0.12364 0,0.13926 0.0074,0.0149 0.02746,0.0202 0.0348,0.0348 0.0052,0.0104 0,0.0232 0,0.0348 0,0.0119 0,0.0232 0,0.0348 0,0.0134 -0.0014,0.13778 0,0.13926 0.0082,0.007 0.0266,-0.009 0.0348,0 0.0082,0.007 0,0.0232 0,0.0348 0,0.0696 0,0.13926 0,0.20881 0,0.0119 -0.0082,0.0266 0,0.0348 0.0082,0.007 0.0266,-0.009 0.0348,0 0.0095,0.009 -0.0094,0.12037 0,0.13926 0.0074,0.0149 0.02747,0.0201 0.0348,0.0348 0.0052,0.0104 0,0.0887 0,0.10445 0,0.0134 -0.0014,0.13777 0,0.13926 0.0082,0.009 0.0266,-0.009 0.0348,0 0.0082,0.009 0,0.0232 0,0.0348 0,0.0164 -0.0016,0.17242 0,0.174 0.0082,0.007 0.0266,-0.007 0.0348,0 0.0082,0.007 0,0.0232 0,0.0348 0,0.0164 -0.0015,0.17242 0,0.174 0.0082,0.007 0.0266,-0.007 0.0348,0 0.01641,0.0164 -0.01641,0.0533 0,0.0696 0.0082,0.007 0.0266,-0.009 0.0348,0 0.0082,0.007 0,0.0232 0,0.0348 0,0.0696 0,0.13926 0,0.2088 0,0.058 0,0.11606 0,0.17401 0,0.0119 0,0.0232 0,0.0348 0,0.0119 -0.0052,0.0244 0,0.0348 0.0074,0.0149 0.02747,0.0202 0.0348,0.0348 0.0054,0.0104 0,0.0887 0,0.10445 0,0.0812 0,0.16239 0,0.24359 0,0.0119 0,0.0232 0,0.0348 0,0.0119 -0.0082,0.0266 0,0.0348 0.0082,0.009 0.0266,-0.007 0.0348,0 0.0082,0.009 0,0.0232 0,0.0348 0,0.058 0,0.11605 0,0.17401 0,0.0119 -0.0082,0.0266 0,0.0348 0.0082,0.007 0.0266,-0.007 0.0348,0 0.01741,0.0174 -0.01741,0.087 0,0.10445 0.0082,0.007 0.0266,-0.009 0.0348,0 0.0012,10e-4 0,0.096 0,0.10445"
       id="path918"
       inkscape:connector-curvature="0" />
    <g
       aria-label="midi-play"
       style="font-style:normal;font-weight:normal;font-size:5.07655811px;line-height:1.25;font-family:sans-serif;letter-spacing:0px;word-spacing:0px;fill:#000000;fill-opacity:1;stroke:none;stroke-width:0.12691395"
       id="text6632"
       transform="translate(-0.33072917,0.06614583)">
      <path
         d="m 12.672045,204.18071 h -0.466012 v -1.57651 q 0,-0.17847 -0.01735,-0.34455 -0.01487,-0.16608 -0.06693,-0.26523 -0.05701,-0.10659 -0.1636,-0.16112 -0.106588,-0.0545 -0.30737,-0.0545 -0.195824,0 -0.391649,0.0992 -0.195824,0.0967 -0.391648,0.24787 0.0074,0.057 0.01239,0.13386 0.005,0.0744 0.005,0.14873 v 1.77233 h -0.466012 v -1.57651 q 0,-0.18343 -0.01735,-0.34703 -0.01487,-0.16608 -0.06693,-0.26523 -0.05701,-0.10659 -0.1636,-0.15864 -0.106587,-0.0545 -0.3073693,-0.0545 -0.1908667,0 -0.3842121,0.0942 -0.1908667,0.0942 -0.3817334,0.24044 v 2.06731 H 8.63162 v -2.76881 h 0.4660122 v 0.30737 q 0.2181333,-0.18095 0.4337879,-0.28258 0.2181334,-0.10163 0.4635334,-0.10163 0.2825815,0 0.4784065,0.11898 0.198303,0.11898 0.294975,0.32968 0.282582,-0.23796 0.515588,-0.34207 0.233006,-0.10659 0.498237,-0.10659 0.456097,0 0.671751,0.27763 0.218134,0.27514 0.218134,0.7709 z"
         style="stroke-width:0.12691395"
         id="path6634"
         inkscape:connector-curvature="0" />
      <path
         d="m 14.070081,200.94837 h -0.525503 v -0.48336 h 0.525503 z m -0.02975,3.23234 h -0.466012 v -2.76881 h 0.466012 z"
         style="stroke-width:0.12691395"
         id="path6636"
         inkscape:connector-curvature="0" />
      <path
         d="m 17.213185,204.18071 h -0.466013 v -0.29002 q -0.200781,0.17352 -0.418915,0.27019 -0.218133,0.0967 -0.473448,0.0967 -0.495758,0 -0.788255,-0.38173 -0.290018,-0.38173 -0.290018,-1.05844 0,-0.35199 0.09915,-0.62714 0.101631,-0.27514 0.272667,-0.46849 0.168558,-0.18839 0.391649,-0.28754 0.225569,-0.0992 0.466012,-0.0992 0.218133,0 0.386691,0.0471 0.168557,0.0446 0.354466,0.14129 v -1.19973 h 0.466013 z m -0.466013,-0.68167 v -1.5889 q -0.188387,-0.0843 -0.337115,-0.1165 -0.148727,-0.0322 -0.324721,-0.0322 -0.391649,0 -0.609782,0.27267 -0.218133,0.27267 -0.218133,0.77338 0,0.49328 0.168557,0.75107 0.168558,0.25532 0.540376,0.25532 0.198303,0 0.401564,-0.0868 0.20326,-0.0892 0.379254,-0.22805 z"
         style="stroke-width:0.12691395"
         id="path6638"
         inkscape:connector-curvature="0" />
      <path
         d="m 18.631052,200.94837 h -0.525504 v -0.48336 h 0.525504 z m -0.02975,3.23234 H 18.13529 v -2.76881 h 0.466012 z"
         style="stroke-width:0.12691395"
         id="path6640"
         inkscape:connector-curvature="0" />
      <path
         d="m 20.995815,202.79011 h -1.546764 v -0.44866 h 1.546764 z"
         style="stroke-width:0.12691395"
         id="path6642"
         inkscape:connector-curvature="0" />
      <path
         d="m 24.275252,202.76284 q 0,0.33712 -0.09667,0.61722 -0.09667,0.27763 -0.272667,0.47097 -0.1636,0.18343 -0.386691,0.28506 -0.220612,0.0992 -0.468491,0.0992 -0.215655,0 -0.391649,-0.0471 -0.173515,-0.0471 -0.354466,-0.14625 v 1.16007 h -0.466012 v -3.79007 h 0.466012 v 0.29002 q 0.185909,-0.15616 0.416436,-0.26027 0.233006,-0.10659 0.495758,-0.10659 0.500715,0 0.778339,0.37926 0.280103,0.37677 0.280103,1.04852 z m -0.480885,0.0124 q 0,-0.50072 -0.171036,-0.7486 -0.171036,-0.24788 -0.525503,-0.24788 -0.200782,0 -0.404043,0.0868 -0.20326,0.0868 -0.389169,0.22805 v 1.56907 q 0.198303,0.0892 0.339594,0.12146 0.143769,0.0322 0.324721,0.0322 0.38917,0 0.607303,-0.26275 0.218133,-0.26276 0.218133,-0.77834 z"
         style="stroke-width:0.12691395"
         id="path6644"
         inkscape:connector-curvature="0" />
      <path
         d="m 25.472507,204.18071 h -0.466012 v -3.85699 h 0.466012 z"
         style="stroke-width:0.12691395"
         id="path6646"
         inkscape:connector-curvature="0" />
      <path
         d="m 28.551162,204.18071 h -0.463533 v -0.29498 q -0.06197,0.0421 -0.168558,0.11899 -0.104109,0.0744 -0.203261,0.11898 -0.116503,0.057 -0.267709,0.0942 -0.151206,0.0397 -0.354466,0.0397 -0.374297,0 -0.63457,-0.24788 -0.260273,-0.24788 -0.260273,-0.63209 0,-0.3148 0.133855,-0.50815 0.136333,-0.19582 0.386691,-0.30737 0.252836,-0.11154 0.607303,-0.1512 0.354466,-0.0397 0.760988,-0.0595 v -0.0719 q 0,-0.15864 -0.05701,-0.26275 -0.05453,-0.10411 -0.158642,-0.1636 -0.09915,-0.057 -0.237964,-0.0768 -0.138812,-0.0198 -0.290018,-0.0198 -0.18343,0 -0.409,0.0496 -0.22557,0.0471 -0.466012,0.13881 h -0.02479 v -0.47345 q 0.136333,-0.0372 0.394127,-0.0818 0.257794,-0.0446 0.508152,-0.0446 0.292497,0 0.508152,0.0496 0.218133,0.0471 0.376775,0.1636 0.156164,0.11403 0.237964,0.29498 0.0818,0.18095 0.0818,0.44866 z m -0.463533,-0.68167 v -0.7709 q -0.213176,0.0124 -0.503194,0.0372 -0.28754,0.0248 -0.456097,0.0719 -0.200782,0.057 -0.324722,0.17847 -0.123939,0.11898 -0.123939,0.32968 0,0.23796 0.14377,0.35942 0.143769,0.11898 0.438745,0.11898 0.2454,0 0.448661,-0.0942 0.20326,-0.0967 0.376776,-0.23053 z"
         style="stroke-width:0.12691395"
         id="path6648"
         inkscape:connector-curvature="0" />
      <path
         d="m 31.808289,201.4119 -1.61617,3.79007 h -0.498236 l 0.515588,-1.15511 -1.103061,-2.63496 h 0.505673 l 0.850224,2.05244 0.857661,-2.05244 z"
         style="stroke-width:0.12691395"
         id="path6650"
         inkscape:connector-curvature="0" />
    </g>
    <rect
       style="fill:#140014;fill-opacity:0.66666667;stroke:none;stroke-width:0.2;stroke-miterlimit:4;stroke-dasharray:none;stroke-opacity:1"
       id="rect6671"
       width="30.823957"
       height="9.6572914"
       x="4.4979167"
       y="208.49686" />
    <g
       style="font-style:normal;font-weight:normal;font-size:6.30139875px;line-height:1.25;font-family:sans-serif;letter-spacing:0px;word-spacing:0px;fill:#000000;fill-opacity:1;stroke:none;stroke-width:0.15753496"
       transform="matrix(0.76714153,0,0,0.76714153,-0.34071491,39.010025)"
       id="g6718">
      <path
         inkscape:connector-curvature="0"
         d="m 10.34293,246.51984 q 0,0.41845 -0.119997,0.76614 -0.119998,0.3446 -0.3384543,0.5846 -0.2030724,0.22769 -0.4799893,0.35384 -0.2738401,0.12307 -0.5815256,0.12307 -0.2676864,0 -0.4861431,-0.0585 -0.2153798,-0.0585 -0.4399902,-0.18153 v 1.43996 H 7.3183818 v -4.70451 h 0.5784487 v 0.36 q 0.2307641,-0.19385 0.5169116,-0.32307 0.2892244,-0.13231 0.615371,-0.13231 0.6215247,0 0.9661324,0.47076 0.3476845,0.46768 0.3476845,1.30151 z m -0.5969097,0.0154 q 0,-0.62152 -0.212303,-0.92921 -0.212303,-0.30768 -0.6522933,-0.30768 -0.2492252,0 -0.5015273,0.10769 -0.2523021,0.10769 -0.4830662,0.28307 v 1.94765 q 0.2461484,0.11076 0.4215291,0.15076 0.1784576,0.04 0.403068,0.04 0.4830662,0 0.7538294,-0.32614 0.2707633,-0.32615 0.2707633,-0.96614 z"
         style="stroke-width:0.15753496"
         id="path6689" />
      <path
         inkscape:connector-curvature="0"
         d="m 11.829051,248.2798 h -0.578449 v -4.78759 h 0.578449 z"
         style="stroke-width:0.15753496"
         id="path6691" />
      <path
         inkscape:connector-curvature="0"
         d="m 15.650505,248.2798 h -0.575372 v -0.36615 q -0.07692,0.0523 -0.209226,0.14769 -0.129228,0.0923 -0.252302,0.14769 -0.144612,0.0708 -0.3323,0.11692 -0.187689,0.0492 -0.439991,0.0492 -0.464605,0 -0.787675,-0.30768 -0.323069,-0.30769 -0.323069,-0.7846 0,-0.39076 0.16615,-0.63076 0.169227,-0.24307 0.479989,-0.38153 0.313839,-0.13845 0.75383,-0.18768 0.43999,-0.0492 0.944594,-0.0738 v -0.0892 q 0,-0.19692 -0.07077,-0.32614 -0.06769,-0.12923 -0.196918,-0.20308 -0.123074,-0.0708 -0.295378,-0.0954 -0.172304,-0.0246 -0.359992,-0.0246 -0.227688,0 -0.507681,0.0615 -0.279994,0.0585 -0.578449,0.17231 h -0.03077 v -0.58768 q 0.169227,-0.0461 0.48922,-0.10154 0.319993,-0.0554 0.630756,-0.0554 0.363068,0 0.630755,0.0615 0.270763,0.0585 0.467682,0.20307 0.193842,0.14153 0.295378,0.36614 0.101536,0.22461 0.101536,0.55691 z m -0.575372,-0.84613 v -0.95691 q -0.264609,0.0154 -0.624601,0.0462 -0.356916,0.0308 -0.566142,0.0892 -0.249225,0.0708 -0.403068,0.22153 -0.153842,0.14769 -0.153842,0.40922 0,0.29538 0.178457,0.44614 0.178458,0.14769 0.544603,0.14769 0.304609,0 0.556911,-0.11692 0.252302,-0.11999 0.467682,-0.28614 z"
         style="stroke-width:0.15753496"
         id="path6693" />
      <path
         inkscape:connector-curvature="0"
         d="m 19.693492,244.84295 -2.00611,4.70451 h -0.618447 l 0.639985,-1.43381 -1.3692,-3.2707 h 0.627678 l 1.055362,2.54764 1.064591,-2.54764 z"
         style="stroke-width:0.15753496"
         id="path6695" />
    </g>
    <g
       style="font-style:normal;font-weight:normal;font-size:6.30139875px;line-height:1.25;font-family:sans-serif;letter-spacing:0px;word-spacing:0px;fill:#000000;fill-opacity:1;stroke:none;stroke-width:0.15753496"
       id="g6724"
       transform="matrix(0.76714153,0,0,0.76714153,-0.34779601,47.237374)">
      <path
         inkscape:connector-curvature="0"
         d="m 9.773712,255.1658 q 0,0.47076 -0.3907606,0.77229 -0.3876837,0.30153 -1.0615149,0.30153 -0.38153,0 -0.7015229,-0.0892 -0.3169161,-0.0923 -0.5322959,-0.2 v -0.64922 h 0.030768 q 0.2738401,0.20615 0.6092173,0.32923 0.3353772,0.11999 0.6430626,0.11999 0.38153,0 0.5969099,-0.12307 0.2153798,-0.12307 0.2153798,-0.38768 0,-0.20308 -0.1169205,-0.30769 -0.1169204,-0.10461 -0.4492208,-0.17846 -0.1230742,-0.0277 -0.3230697,-0.0646 -0.1969187,-0.0369 -0.3599921,-0.08 -0.4522976,-0.12 -0.6430626,-0.35076 -0.1876882,-0.23384 -0.1876882,-0.5723 0,-0.2123 0.086152,-0.39999 0.089229,-0.18768 0.2676863,-0.33537 0.1723039,-0.14462 0.4369134,-0.22769 0.2676864,-0.0862 0.5969099,-0.0862 0.3076855,0 0.6215247,0.0769 0.316916,0.0738 0.5261421,0.18153 v 0.61845 h -0.030769 q -0.2215336,-0.16307 -0.5384496,-0.27384 -0.3169161,-0.11384 -0.6215247,-0.11384 -0.316916,0 -0.5353727,0.12307 -0.2184567,0.12 -0.2184567,0.35999 0,0.21231 0.1323047,0.32 0.1292279,0.10769 0.4184523,0.17538 0.1599964,0.0369 0.3569152,0.0738 0.1999955,0.0369 0.3323003,0.0677 0.403068,0.0923 0.6215247,0.31692 0.2184567,0.22769 0.2184567,0.60306 z"
         style="stroke-width:0.15753496"
         id="path6697" />
      <path
         inkscape:connector-curvature="0"
         d="m 12.389039,256.12578 q -0.163074,0.0431 -0.356915,0.0708 -0.190765,0.0277 -0.341531,0.0277 -0.526143,0 -0.799983,-0.28307 -0.27384,-0.28307 -0.27384,-0.90767 v -1.82765 h -0.39076 v -0.48615 h 0.39076 v -0.98767 h 0.578449 v 0.98767 h 1.19382 v 0.48615 h -1.19382 v 1.56611 q 0,0.27077 0.01231,0.42461 0.01231,0.15077 0.08615,0.28307 0.06769,0.12307 0.184612,0.18154 0.119997,0.0554 0.363069,0.0554 0.141535,0 0.295378,-0.04 0.153842,-0.0431 0.221533,-0.0708 h 0.03077 z"
         style="stroke-width:0.15753496"
         id="path6699" />
      <path
         inkscape:connector-curvature="0"
         d="m 16.019727,254.43966 q 0,0.83999 -0.430759,1.32613 -0.43076,0.48614 -1.153821,0.48614 -0.729215,0 -1.159974,-0.48614 -0.427683,-0.48614 -0.427683,-1.32613 0,-0.83998 0.427683,-1.32612 0.430759,-0.48922 1.159974,-0.48922 0.723061,0 1.153821,0.48922 0.430759,0.48614 0.430759,1.32612 z m -0.59691,0 q 0,-0.66767 -0.261532,-0.99074 -0.261533,-0.32615 -0.726138,-0.32615 -0.470759,0 -0.732292,0.32615 -0.258455,0.32307 -0.258455,0.99074 0,0.64614 0.261532,0.98152 0.261533,0.3323 0.729215,0.3323 0.461528,0 0.723061,-0.32922 0.264609,-0.3323 0.264609,-0.9846 z"
         style="stroke-width:0.15753496"
         id="path6701" />
      <path
         inkscape:connector-curvature="0"
         d="m 19.942717,254.39659 q 0,0.41845 -0.119997,0.76613 -0.119998,0.34461 -0.338455,0.58461 -0.203072,0.22768 -0.479989,0.35384 -0.27384,0.12307 -0.581525,0.12307 -0.267687,0 -0.486144,-0.0585 -0.215379,-0.0585 -0.43999,-0.18154 v 1.43997 h -0.578448 v -4.70451 h 0.578448 v 0.35999 q 0.230764,-0.19384 0.516912,-0.32307 0.289224,-0.1323 0.615371,-0.1323 0.621525,0 0.966132,0.47076 0.347685,0.46768 0.347685,1.30151 z m -0.59691,0.0154 q 0,-0.62152 -0.212303,-0.92921 -0.212303,-0.30768 -0.652293,-0.30768 -0.249225,0 -0.501528,0.10769 -0.252302,0.10769 -0.483066,0.28307 v 1.94765 q 0.246149,0.11076 0.421529,0.15076 0.178458,0.04 0.403068,0.04 0.483067,0 0.75383,-0.32615 0.270763,-0.32614 0.270763,-0.96613 z"
         style="stroke-width:0.15753496"
         id="path6703" />
    </g>
    <g
       style="font-style:normal;font-weight:normal;font-size:6.30139875px;line-height:1.25;font-family:sans-serif;letter-spacing:0px;word-spacing:0px;fill:#000000;fill-opacity:1;stroke:none;stroke-width:0.15753496"
       id="g6730"
       transform="matrix(0.76714153,0,0,0.76714153,-1.0952798,56.192902)">
      <path
         inkscape:connector-curvature="0"
         d="M 7.9029842,264.0333 H 7.3245355 v -4.78759 h 0.5784487 z"
         style="stroke-width:0.15753496"
         id="path6705" />
      <path
         inkscape:connector-curvature="0"
         d="m 11.982894,262.31641 q 0,0.83998 -0.43076,1.32613 -0.43076,0.48614 -1.15382,0.48614 -0.7292151,0 -1.1599747,-0.48614 -0.4276829,-0.48615 -0.4276829,-1.32613 0,-0.83998 0.4276829,-1.32612 0.4307596,-0.48922 1.1599747,-0.48922 0.72306,0 1.15382,0.48922 0.43076,0.48614 0.43076,1.32612 z m -0.59691,0 q 0,-0.66768 -0.261533,-0.99074 -0.261532,-0.32615 -0.726137,-0.32615 -0.4707592,0 -0.7322919,0.32615 -0.2584558,0.32306 -0.2584558,0.99074 0,0.64614 0.2615326,0.98152 0.2615327,0.3323 0.7292151,0.3323 0.461528,0 0.72306,-0.32922 0.26461,-0.3323 0.26461,-0.9846 z"
         style="stroke-width:0.15753496"
         id="path6707" />
      <path
         inkscape:connector-curvature="0"
         d="m 15.552045,264.0333 h -0.575372 v -0.36615 q -0.07692,0.0523 -0.209226,0.14769 -0.129228,0.0923 -0.252302,0.14769 -0.144612,0.0708 -0.3323,0.11692 -0.187688,0.0492 -0.43999,0.0492 -0.464605,0 -0.787675,-0.30769 -0.32307,-0.30768 -0.32307,-0.78459 0,-0.39076 0.16615,-0.63076 0.169227,-0.24307 0.47999,-0.38153 0.313839,-0.13846 0.753829,-0.18769 0.43999,-0.0492 0.944594,-0.0738 v -0.0892 q 0,-0.19692 -0.07077,-0.32615 -0.06769,-0.12922 -0.196919,-0.20307 -0.123074,-0.0708 -0.295378,-0.0954 -0.172304,-0.0246 -0.359992,-0.0246 -0.227687,0 -0.507681,0.0615 -0.279994,0.0585 -0.578449,0.1723 h -0.03077 v -0.58768 q 0.169227,-0.0462 0.48922,-0.10153 0.319992,-0.0554 0.630755,-0.0554 0.363069,0 0.630755,0.0615 0.270763,0.0585 0.467682,0.20307 0.193842,0.14154 0.295378,0.36615 0.101536,0.22461 0.101536,0.55691 z m -0.575372,-0.84614 v -0.9569 q -0.264609,0.0154 -0.624601,0.0462 -0.356915,0.0308 -0.566141,0.0892 -0.249226,0.0708 -0.403068,0.22154 -0.153843,0.14768 -0.153843,0.40922 0,0.29538 0.178457,0.44614 0.178458,0.14769 0.544604,0.14769 0.304608,0 0.55691,-0.11692 0.252303,-0.12 0.467682,-0.28615 z"
         style="stroke-width:0.15753496"
         id="path6709" />
      <path
         inkscape:connector-curvature="0"
         d="m 19.459651,264.0333 h -0.578449 v -0.35999 q -0.249225,0.21538 -0.519988,0.33537 -0.270763,0.12 -0.58768,0.12 -0.615371,0 -0.978439,-0.47384 -0.359992,-0.47383 -0.359992,-1.31381 0,-0.43692 0.123074,-0.77845 0.126151,-0.34153 0.338454,-0.58152 0.209226,-0.23384 0.486143,-0.35692 0.279994,-0.12307 0.578449,-0.12307 0.270763,0 0.479989,0.0585 0.209226,0.0554 0.43999,0.17538 v -1.4892 h 0.578449 z m -0.578449,-0.84614 v -1.97226 q -0.233841,-0.10461 -0.418452,-0.14461 -0.184611,-0.04 -0.403068,-0.04 -0.486143,0 -0.756906,0.33845 -0.270764,0.33846 -0.270764,0.95998 0,0.61229 0.209227,0.93229 0.209226,0.31691 0.670754,0.31691 0.246148,0 0.49845,-0.10769 0.252303,-0.11076 0.470759,-0.28307 z"
         style="stroke-width:0.15753496"
         id="path6711" />
    </g>
    <rect
       style="fill:#ffffff;fill-opacity:0.66666667;stroke:#000000;stroke-width:0.2;stroke-miterlimit:4;stroke-dasharray:none;stroke-opacity:1"
       id="rect6747"
       width="8.2319012"
       height="8.2319012"
       x="27.642353"
       y="223.47414" />
    <path
       id="path6755"
       style="font-style:normal;font-weight:normal;font-size:4.24405766px;line-height:1.25;font-family:sans-serif;letter-spacing:0px;word-spacing:0px;fill:#000000;fill-opacity:1;stroke:none;stroke-width:0.10610144"
       d="m 10.169387,274.24419 q -0.113976,0.0497 -0.2072301,0.0933 -0.09118,0.0435 -0.240386,0.0912 -0.12641,0.0394 -0.275615,0.0663 -0.147133,0.029 -0.32535,0.029 -0.335712,0 -0.611327,-0.0933 -0.273542,-0.0953 -0.476627,-0.29634 -0.19894,-0.19686 -0.310844,-0.49942 -0.111904,-0.30463 -0.111904,-0.70665 0,-0.3813 0.107759,-0.68179 0.107759,-0.30048 0.310844,-0.50771 0.196868,-0.20101 0.474555,-0.3067 0.27976,-0.10568 0.619616,-0.10568 0.248676,0 0.495279,0.0601 0.248675,0.0601 0.5512301,0.21138 v 0.48698 h -0.03109 q -0.2548921,-0.21344 -0.5056391,-0.31084 -0.250748,-0.0974 -0.536725,-0.0974 -0.234169,0 -0.422747,0.0767 -0.186507,0.0746 -0.33364,0.23417 -0.142988,0.15542 -0.223807,0.39373 -0.07875,0.23624 -0.07875,0.54709 0,0.32535 0.08704,0.55952 0.08911,0.23417 0.227952,0.3813 0.145061,0.15335 0.337784,0.22795 0.194796,0.0725 0.410314,0.0725 0.296338,0 0.555375,-0.10154 0.259037,-0.10154 0.4849171,-0.30463 h 0.02901 z"
       inkscape:connector-curvature="0" />
    <path
       id="path6757"
       style="font-style:normal;font-weight:normal;font-size:4.24405766px;line-height:1.25;font-family:sans-serif;letter-spacing:0px;word-spacing:0px;fill:#000000;fill-opacity:1;stroke:none;stroke-width:0.10610144"
       d="m 13.186646,271.38236 -1.123183,3.08564 h -0.547085 l -1.123184,-3.08564 h 0.439327 l 0.967761,2.7147 0.967761,-2.7147 z"
       inkscape:connector-curvature="0" />
    <path
       inkscape:connector-curvature="0"
       id="path6759"
       style="font-style:normal;font-weight:normal;font-size:4.24405766px;line-height:1.25;font-family:sans-serif;letter-spacing:0px;word-spacing:0px;fill:#000000;fill-opacity:1;stroke:none;stroke-width:0.10610144"
       d="m 22.240168,274.23797 q -0.25282,0.11605 -0.553303,0.20309 -0.29841,0.085 -0.57817,0.085 -0.360579,0 -0.661061,-0.0995 -0.300483,-0.0995 -0.511857,-0.29841 -0.213446,-0.20101 -0.329495,-0.50149 -0.116048,-0.30256 -0.116048,-0.70666 0,-0.73981 0.431037,-1.1667 0.433109,-0.42896 1.187424,-0.42896 0.263182,0 0.536724,0.0642 0.275615,0.0622 0.592676,0.21344 v 0.48699 h -0.0373 q -0.06424,-0.0497 -0.186506,-0.13055 -0.122266,-0.0808 -0.240386,-0.1347 -0.142989,-0.0642 -0.325351,-0.10569 -0.180289,-0.0435 -0.410314,-0.0435 -0.518073,0 -0.820628,0.33364 -0.300483,0.33157 -0.300483,0.89938 0,0.59889 0.314989,0.93253 0.314989,0.33157 0.85793,0.33157 0.19894,0 0.395808,-0.0394 0.19894,-0.0394 0.348145,-0.10155 v -0.75638 h -0.826845 v -0.36058 h 1.233015 z" />
    <path
       inkscape:connector-curvature="0"
       id="path6761"
       style="font-style:normal;font-weight:normal;font-size:4.24405766px;line-height:1.25;font-family:sans-serif;letter-spacing:0px;word-spacing:0px;fill:#000000;fill-opacity:1;stroke:none;stroke-width:0.10610144"
       d="M 25.390054,274.46592 H 24.9528 l -0.302555,-0.86 h -1.334557 l -0.302555,0.86 h -0.416531 l 1.123183,-3.08564 h 0.547086 z m -0.866219,-1.21229 -0.540868,-1.51484 -0.542941,1.51484 z" />
    <path
       inkscape:connector-curvature="0"
       id="path6763"
       style="font-style:normal;font-weight:normal;font-size:4.24405766px;line-height:1.25;font-family:sans-serif;letter-spacing:0px;word-spacing:0px;fill:#000000;fill-opacity:1;stroke:none;stroke-width:0.10610144"
       d="m 27.810493,271.745 h -1.10246 v 2.72092 H 26.297719 V 271.745 h -1.102461 v -0.36472 h 2.615235 z" />
    <path
       inkscape:connector-curvature="0"
       id="path6765"
       style="font-style:normal;font-weight:normal;font-size:4.24405766px;line-height:1.25;font-family:sans-serif;letter-spacing:0px;word-spacing:0px;fill:#000000;fill-opacity:1;stroke:none;stroke-width:0.10610144"
       d="m 30.262016,274.46592 h -2.03292 v -3.08564 h 2.03292 V 271.745 H 28.63941 v 0.8455 h 1.622606 v 0.36472 H 28.63941 v 1.14598 h 1.622606 z" />
    <rect
       style="fill:#ffffff;fill-opacity:0.66666667;stroke:#000000;stroke-width:0.2;stroke-miterlimit:4;stroke-dasharray:none;stroke-opacity:1"
       id="rect6747-9"
       width="8.2319012"
       height="8.2319012"
       x="27.642353"
       y="238.34767" />
    <rect
       style="fill:#000000;fill-opacity:1;stroke:#000000;stroke-width:0.2;stroke-miterlimit:4;stroke-dasharray:none;stroke-opacity:1"
       id="rect6747-9-6"
       width="8.2319012"
       height="8.2319012"
       x="6.1739259"
       y="276.88794" />
    <rect
       style="fill:#000000;fill-opacity:1;stroke:#000000;stroke-width:0.2;stroke-miterlimit:4;stroke-dasharray:none;stroke-opacity:1"
       id="rect6747-9-1"
       width="8.2319012"
       height="8.2319012"
       x="20.579754"
       y="276.88794" />
  </g>
  <g
     inkscape:groupmode="layer"
     id="layer2"
     inkscape:label="components"
     style="display:none"
     sodipodi:insensitive="true">
    <circle
       r="2"
       cy="31.412403"
       cx="21.37488"
       id="circle7554"
       style="display:inline;opacity:1;vector-effect:none;fill:#ff0000;fill-opacity:1;fill-rule:evenodd;stroke:none;stroke-width:1;stroke-linecap:butt;stroke-linejoin:miter;stroke-miterlimit:4;stroke-dasharray:none;stroke-dashoffset:0;stroke-opacity:1;paint-order:normal" />
    <circle
       r="2"
       cy="45.865002"
       cx="21.37488"
       id="circle7554-2"
       style="display:inline;opacity:1;vector-effect:none;fill:#ff0000;fill-opacity:1;fill-rule:evenodd;stroke:none;stroke-width:1;stroke-linecap:butt;stroke-linejoin:miter;stroke-miterlimit:4;stroke-dasharray:none;stroke-dashoffset:0;stroke-opacity:1;paint-order:normal" />
    <circle
       r="2"
       cy="60.317604"
       cx="21.37488"
       id="circle7554-9"
       style="display:inline;opacity:1;vector-effect:none;fill:#ff0000;fill-opacity:1;fill-rule:evenodd;stroke:none;stroke-width:1;stroke-linecap:butt;stroke-linejoin:miter;stroke-miterlimit:4;stroke-dasharray:none;stroke-dashoffset:0;stroke-opacity:1;paint-order:normal" />
    <circle
       r="2"
       cy="84.685898"
       cx="9.915699"
       id="circle7490"
       style="display:inline;opacity:1;vector-effect:none;fill:#0000ff;fill-opacity:1;fill-rule:evenodd;stroke:none;stroke-width:1;stroke-linecap:butt;stroke-linejoin:miter;stroke-miterlimit:4;stroke-dasharray:none;stroke-dashoffset:0;stroke-opacity:1;paint-order:normal" />
    <circle
       r="2"
       cy="84.685898"
       cx="24.882793"
       id="circle7490-0"
       style="display:inline;opacity:1;vector-effect:none;fill:#0000ff;fill-opacity:1;fill-rule:evenodd;stroke:none;stroke-width:1;stroke-linecap:butt;stroke-linejoin:miter;stroke-miterlimit:4;stroke-dasharray:none;stroke-dashoffset:0;stroke-opacity:1;paint-order:normal" />
    <circle
       r="2"
       cy="46.005318"
       cx="31.711531"
       id="circle7554-2-0"
       style="display:inline;opacity:1;vector-effect:none;fill:#00ff00;fill-opacity:1;fill-rule:evenodd;stroke:none;stroke-width:1;stroke-linecap:butt;stroke-linejoin:miter;stroke-miterlimit:4;stroke-dasharray:none;stroke-dashoffset:0;stroke-opacity:1;paint-order:normal" />
    <circle
       r="2"
       cy="31.505947"
       cx="31.711531"
       id="circle7554-2-7"
       style="display:inline;opacity:1;vector-effect:none;fill:#00ff00;fill-opacity:1;fill-rule:evenodd;stroke:none;stroke-width:1;stroke-linecap:butt;stroke-linejoin:miter;stroke-miterlimit:4;stroke-dasharray:none;stroke-dashoffset:0;stroke-opacity:1;paint-order:normal" />
    <rect
       style="display:inline;fill:#ffff00;fill-opacity:1;stroke:none;stroke-width:0.2;stroke-miterlimit:4;stroke-dasharray:none;stroke-opacity:1"
       id="rect6671-8"
       width="30.823957"
       height="9.6572914"
       x="4.4979138"
       y="12.038532" />
    <circle
       style="display:inline;fill:#ff00ff;fill-opacity:0.66666667;stroke:none;stroke-width:0.16500001;stroke-miterlimit:4;stroke-dasharray:none;stroke-opacity:1"
       id="path186"
       cx="17.67988"
       cy="28.325439"
       r="1.2567708" />
    <circle
       style="display:inline;fill:#ff00ff;fill-opacity:0.66666667;stroke:none;stroke-width:0.16500001;stroke-miterlimit:4;stroke-dasharray:none;stroke-opacity:1"
       id="path186-9"
       cx="17.539562"
       cy="57.885448"
       r="1.2567708" />
  </g>
</svg>
